<svg id="Laag_1" data-name="Laag 1" xmlns="http://www.w3.org/2000/svg" xmlns:xlink="http://www.w3.org/1999/xlink" viewBox="0 0 500 720"><defs><style>.cls-1{fill:#00a8ed;}.cls-2{clip-path:url(#clip-path);}.cls-3{fill:none;stroke:#5bc5f2;stroke-miterlimit:10;}.cls-4,.cls-5{fill:#fff;}.cls-5{font-size:30.44px;font-family:MuseoSans-500, Museo Sans;}</style><clipPath id="clip-path"><rect class="cls-1" x="24.79" y="27.52" width="447.6" height="665.38" rx="40" ry="40"/></clipPath></defs><title>CoostoPoker_back_v2</title><rect class="cls-1" x="24.79" y="27.52" width="447.6" height="665.38" rx="40" ry="40"/><g class="cls-2"><circle class="cls-3" cx="248.92" cy="360.2" r="299.36"/><circle class="cls-3" cx="248.92" cy="360.21" r="239.49"/><circle class="cls-3" cx="248.92" cy="360.2" r="185.6"/><circle class="cls-3" cx="248.92" cy="360.2" r="121.18"/><circle class="cls-3" cx="248.92" cy="360.21" r="61.33"/></g><path class="cls-4" d="M72.38,342.23V291.59H91.86a15.54,15.54,0,0,1,11.6,4.56q4.48,4.56,4.48,11.91a16.49,16.49,0,0,1-4.49,12,15.41,15.41,0,0,1-11.57,4.63H81.61v17.55Zm9.23-25.46h8.6a8.25,8.25,0,0,0,6.23-2.35,8.78,8.78,0,0,0,2.26-6.36,8.64,8.64,0,0,0-2.23-6.25,8.11,8.11,0,0,0-6.13-2.32H81.61Z"/><path class="cls-4" d="M116.16,342.23V291.59h9.23v42.73h21.87v7.91Z"/><path class="cls-4" d="M148.24,342.23l17.83-50.64h9.65l17.83,50.64H184l-4.28-13H162l-4.28,13Zm16-20.48h13.27L173,308.2q-.42-1.25-.92-3.22t-.78-3.29l-.31-1.32h-.14a71.21,71.21,0,0,1-2.12,7.84Z"/><path class="cls-4" d="M200,342.23V291.59h9.23l19.15,29.26q.84,1.29,1.9,3.26t1.69,3.29l.63,1.29h.14q-.48-4.84-.48-7.84V291.59h9.06v50.64h-9.06L213.05,313q-.84-1.29-1.9-3.26t-1.69-3.29l-.63-1.29h-.14a76.54,76.54,0,0,1,.52,7.84v29.19Z"/><path class="cls-4" d="M254.19,342.23V291.59h9.23l19.15,29.26q.84,1.29,1.9,3.26t1.69,3.29l.63,1.29h.14q-.48-4.84-.48-7.84V291.59h9.06v50.64h-9.06L267.25,313q-.84-1.29-1.9-3.26t-1.69-3.29l-.63-1.29h-.14a76.54,76.54,0,0,1,.52,7.84v29.19Z"/><path class="cls-4" d="M308.38,342.23V291.59h9.23v50.64Z"/><path class="cls-4" d="M330.39,342.23V291.59h9.23l19.15,29.26q.84,1.29,1.9,3.26t1.69,3.29l.63,1.29h.14q-.48-4.84-.48-7.84V291.59h9.06v50.64h-9.06L343.45,313q-.84-1.29-1.9-3.26t-1.69-3.29l-.63-1.29h-.14a76.54,76.54,0,0,1,.52,7.84v29.19Z"/><path class="cls-4" d="M381.17,316.84a26.82,26.82,0,0,1,2-10.27,25.5,25.5,0,0,1,5.42-8.32,24.86,24.86,0,0,1,8.31-5.5,27,27,0,0,1,10.41-2,33,33,0,0,1,6.69.66,26.21,26.21,0,0,1,5.31,1.6,37,37,0,0,1,3.73,1.9,15.39,15.39,0,0,1,2.35,1.62l.73.66L421.54,304a6.2,6.2,0,0,0-.63-.52q-.42-.31-1.79-1.15a24.41,24.41,0,0,0-2.84-1.48,21.32,21.32,0,0,0-3.71-1.17,19.86,19.86,0,0,0-4.51-.52,18.24,18.24,0,0,0-9.51,2.39,15.11,15.11,0,0,0-6,6.29,19.27,19.27,0,0,0-2,8.74q0,8.08,4.88,13.1a16.22,16.22,0,0,0,12.12,5,16.77,16.77,0,0,0,4.21-.54,16,16,0,0,0,3.55-1.32q1.46-.78,2.63-1.57a12,12,0,0,0,1.72-1.34l.56-.52v-5.92h-7.77v-7.91h16.06v26.68h-7.84v-2.44l.07-2.12h-.14q-.21.21-.63.57a21.64,21.64,0,0,1-1.83,1.31,20.67,20.67,0,0,1-3,1.65,23.05,23.05,0,0,1-4.09,1.31,22.37,22.37,0,0,1-5.16.59,24.35,24.35,0,0,1-9.51-1.9,24.89,24.89,0,0,1-7.92-5.24,24.13,24.13,0,0,1-5.4-8.32A28.65,28.65,0,0,1,381.17,316.84Z"/><path class="cls-4" d="M72.38,430V350.76h30.5q11.14,0,18.16,7.14t7,18.65q0,11.51-7,18.76t-18.11,7.25H86.83V430Zm14.45-39.86H100.3q6.22,0,9.76-3.68t3.54-10q0-6.16-3.49-9.79t-9.6-3.63H86.83Z"/><path class="cls-4" d="M135.47,389.86A40.29,40.29,0,0,1,138.63,374a39,39,0,0,1,21.62-21.43,43.19,43.19,0,0,1,32.44,0,40,40,0,0,1,13,8.56A39.48,39.48,0,0,1,214.29,374a40.59,40.59,0,0,1,3.14,15.87,42.76,42.76,0,0,1-3.14,16.3,40.47,40.47,0,0,1-8.56,13.22,40,40,0,0,1-13,8.78,42.18,42.18,0,0,1-32.44,0,40,40,0,0,1-13-8.78,40.81,40.81,0,0,1-8.59-13.22A42.44,42.44,0,0,1,135.47,389.86Zm14.83,0q0,12.11,7.61,20.23a25.25,25.25,0,0,0,37.11,0q7.58-8.12,7.58-20.23a28.23,28.23,0,0,0-3.49-14,26,26,0,0,0-41.17-5.56,26.9,26.9,0,0,0-5.56,8.67A28.4,28.4,0,0,0,150.3,389.86Z"/><path class="cls-4" d="M232,430V350.76h14.45V383h10.25l18.65-32.28H291L268.58,388.5v.22L292.35,430h-16.2l-19.41-34.63H246.49V430Z"/><path class="cls-4" d="M304.29,430V350.76h47.49v12.38h-33V384h26.66v12.38H318.75v21.32h34.79V430Z"/><path class="cls-4" d="M368.47,430V350.76h25.65a72.21,72.21,0,0,1,9.87.52,22.8,22.8,0,0,1,6.15,1.72,21.61,21.61,0,0,1,9.55,8.34,26.4,26.4,0,0,1-.19,26.51,20,20,0,0,1-9.9,8.42v.22a19.52,19.52,0,0,1,2.7,3.88L428.61,430H412.53l-15.8-29.72h-13.8V430ZM382.93,388h12.92q5.78,0,9.13-3.3t3.35-9.19q0-6.11-3.24-9.22t-11.26-3.11H382.93Z"/><text class="cls-5" transform="translate(165.3 655.54)">coosto.com</text></svg>