<svg id="Laag_1" data-name="Laag 1" xmlns="http://www.w3.org/2000/svg" xmlns:xlink="http://www.w3.org/1999/xlink" viewBox="0 0 550 770"><defs><style>.cls-1{fill:#8f5bb5;}.cls-2{clip-path:url(#clip-path);}.cls-3{opacity:0.25;}.cls-4,.cls-5{fill:none;stroke-miterlimit:10;}.cls-4{stroke:#ebd0fc;}.cls-5{stroke:#8f5bb5;stroke-width:2px;}.cls-6{fill:#fff;}</style><clipPath id="clip-path"><rect class="cls-1" x="51.2" y="52.31" width="447.6" height="665.38" rx="40" ry="40"/></clipPath></defs><title>CoostoPoker_05</title><rect class="cls-1" x="51.2" y="52.31" width="447.6" height="665.38" rx="40" ry="40"/><g class="cls-2"><g class="cls-3"><circle class="cls-4" cx="275" cy="385" r="299.36"/><circle class="cls-4" cx="275" cy="385" r="239.49"/><circle class="cls-4" cx="275" cy="385" r="185.6"/><circle class="cls-4" cx="275" cy="385" r="121.18"/><circle class="cls-4" cx="275" cy="385" r="61.33"/></g></g><rect class="cls-5" x="24.58" y="25.26" width="500.84" height="719.49" rx="45" ry="45"/><path class="cls-6" d="M169.73,379.6A127.21,127.21,0,0,1,171,361a73.56,73.56,0,0,1,4.16-15.95,42.19,42.19,0,0,1,7.41-12.62A31.33,31.33,0,0,1,194,324.33a43.16,43.16,0,0,1,31.47,0,31.63,31.63,0,0,1,11.49,8.13,41.76,41.76,0,0,1,7.45,12.63A73.67,73.67,0,0,1,248.55,361a138.56,138.56,0,0,1,0,37.23,74.14,74.14,0,0,1-4.16,16,42.1,42.1,0,0,1-7.45,12.69,31.82,31.82,0,0,1-11.49,8.2,42.71,42.71,0,0,1-31.47,0,31.52,31.52,0,0,1-11.42-8.2,42.54,42.54,0,0,1-7.41-12.69,74,74,0,0,1-4.16-16A128.31,128.31,0,0,1,169.73,379.6Zm16.33,0a118.25,118.25,0,0,0,1.13,17.33,57.19,57.19,0,0,0,3.74,13.78,21.45,21.45,0,0,0,7.33,9.52,19.36,19.36,0,0,0,11.43,3.32,19.18,19.18,0,0,0,16.38-8.35,33.75,33.75,0,0,0,4.37-9.52,65.15,65.15,0,0,0,2.38-12,135.48,135.48,0,0,0,.66-14.05,133.46,133.46,0,0,0-.66-13.93,64.34,64.34,0,0,0-2.38-11.94,33.83,33.83,0,0,0-4.37-9.48,19.23,19.23,0,0,0-6.79-6,21.62,21.62,0,0,0-19.11,0,19.23,19.23,0,0,0-6.79,6,33.06,33.06,0,0,0-4.33,9.48,66.47,66.47,0,0,0-2.34,11.94A133.46,133.46,0,0,0,186.06,379.6Z"/><path class="cls-6" d="M271.84,436.2V420.34h16.33V436.2Z"/><path class="cls-6" d="M307.93,422.29l8.83-11.52,1.05,1.29a31.72,31.72,0,0,0,3,2.92,34.32,34.32,0,0,0,5,3.7,32,32,0,0,0,6.91,2.92,29.16,29.16,0,0,0,8.71,1.32,25.75,25.75,0,0,0,17.54-6.38,20.82,20.82,0,0,0,7.3-16.43A21.18,21.18,0,0,0,359,383.52Q351.58,377,340.56,377a34.13,34.13,0,0,0-9.7,1.41,30.34,30.34,0,0,0-7,2.81l-2.35,1.41-9.07-3.37,5.61-56h57V337H331.8l-2.65,23.78-.33,3a13.82,13.82,0,0,1-.4,2.29l-.16.7h.31q.7-.39,2-1a37.16,37.16,0,0,1,5.13-1.56,30.45,30.45,0,0,1,7.52-1q17.55,0,28.51,10.6a34.9,34.9,0,0,1,11,26.12q0,16.36-11.48,27.28t-28.67,10.92a47.49,47.49,0,0,1-12.46-1.62,38.14,38.14,0,0,1-9.8-3.94,62.13,62.13,0,0,1-6.76-4.69,28.81,28.81,0,0,1-4.26-4Z"/><path class="cls-6" d="M94,107.36a31.84,31.84,0,0,1,.31-4.64,18.43,18.43,0,0,1,1-4,10.55,10.55,0,0,1,1.85-3.16,7.83,7.83,0,0,1,2.85-2,10.79,10.79,0,0,1,7.87,0,7.91,7.91,0,0,1,2.87,2,10.46,10.46,0,0,1,1.86,3.16,18.43,18.43,0,0,1,1,4,34.59,34.59,0,0,1,0,9.31,18.53,18.53,0,0,1-1,4,10.54,10.54,0,0,1-1.86,3.17,8,8,0,0,1-2.87,2,10.68,10.68,0,0,1-7.87,0,7.88,7.88,0,0,1-2.85-2A10.62,10.62,0,0,1,95.38,116a18.53,18.53,0,0,1-1-4A32.11,32.11,0,0,1,94,107.36Zm4.08,0a29.59,29.59,0,0,0,.28,4.33,14.27,14.27,0,0,0,.94,3.44,5.36,5.36,0,0,0,1.83,2.38,4.84,4.84,0,0,0,2.86.83,4.79,4.79,0,0,0,4.09-2.09,8.4,8.4,0,0,0,1.09-2.38,16.26,16.26,0,0,0,.59-3,33.93,33.93,0,0,0,.17-3.51,33.41,33.41,0,0,0-.17-3.48,16.06,16.06,0,0,0-.59-3,8.45,8.45,0,0,0-1.09-2.37,4.8,4.8,0,0,0-1.7-1.51,5.4,5.4,0,0,0-4.78,0,4.8,4.8,0,0,0-1.7,1.51,8.26,8.26,0,0,0-1.08,2.37,16.55,16.55,0,0,0-.58,3A33.41,33.41,0,0,0,98.11,107.36Z"/><path class="cls-6" d="M119.55,121.51v-4h4.08v4Z"/><path class="cls-6" d="M128.57,118l2.21-2.88.26.32a8,8,0,0,0,.76.73,8.65,8.65,0,0,0,1.26.92,8,8,0,0,0,1.73.73,7.29,7.29,0,0,0,2.18.33,6.44,6.44,0,0,0,4.38-1.6,5.2,5.2,0,0,0,1.83-4.11,5.29,5.29,0,0,0-1.85-4.15,6.69,6.69,0,0,0-4.61-1.64,8.53,8.53,0,0,0-2.42.35,7.55,7.55,0,0,0-1.76.7l-.59.35-2.27-.84,1.4-14h14.26V96.7H134.54l-.66,5.94-.08.75a3.48,3.48,0,0,1-.1.57l0,.17h.08l.5-.24a9.24,9.24,0,0,1,1.28-.39,7.64,7.64,0,0,1,1.88-.24,9.82,9.82,0,0,1,7.13,2.65,8.72,8.72,0,0,1,2.74,6.53,9,9,0,0,1-2.87,6.82,10,10,0,0,1-7.17,2.73,11.87,11.87,0,0,1-3.12-.4,9.51,9.51,0,0,1-2.45-1,15.51,15.51,0,0,1-1.69-1.17,7.23,7.23,0,0,1-1.06-1Z"/><path class="cls-6" d="M454.69,661.31a31.84,31.84,0,0,1-.31,4.64,18.42,18.42,0,0,1-1,4,10.54,10.54,0,0,1-1.85,3.16,7.85,7.85,0,0,1-2.85,2,10.8,10.8,0,0,1-7.87,0,7.92,7.92,0,0,1-2.87-2,10.45,10.45,0,0,1-1.86-3.16,18.42,18.42,0,0,1-1-4,34.59,34.59,0,0,1,0-9.31,18.53,18.53,0,0,1,1-4,10.54,10.54,0,0,1,1.86-3.17,8,8,0,0,1,2.87-2,10.67,10.67,0,0,1,7.87,0,7.87,7.87,0,0,1,2.85,2,10.62,10.62,0,0,1,1.85,3.17,18.53,18.53,0,0,1,1,4A32.12,32.12,0,0,1,454.69,661.31Zm-4.08,0a29.59,29.59,0,0,0-.28-4.33,14.29,14.29,0,0,0-.94-3.44,5.36,5.36,0,0,0-1.83-2.38,4.84,4.84,0,0,0-2.86-.83,4.8,4.8,0,0,0-4.09,2.09,8.42,8.42,0,0,0-1.09,2.38,16.26,16.26,0,0,0-.59,3,33.93,33.93,0,0,0-.17,3.51,33.4,33.4,0,0,0,.17,3.48,16.06,16.06,0,0,0,.59,3,8.44,8.44,0,0,0,1.09,2.37,4.8,4.8,0,0,0,1.7,1.51,5.4,5.4,0,0,0,4.78,0,4.8,4.8,0,0,0,1.7-1.51,8.25,8.25,0,0,0,1.08-2.37,16.55,16.55,0,0,0,.58-3A33.4,33.4,0,0,0,450.61,661.31Z"/><path class="cls-6" d="M429.17,647.16v4h-4.08v-4Z"/><path class="cls-6" d="M420.14,650.63l-2.21,2.88-.26-.32a8,8,0,0,0-.76-.73,8.65,8.65,0,0,0-1.26-.92,8,8,0,0,0-1.73-.73,7.29,7.29,0,0,0-2.18-.33,6.44,6.44,0,0,0-4.38,1.6,5.21,5.21,0,0,0-1.83,4.11,5.3,5.3,0,0,0,1.85,4.15A6.7,6.7,0,0,0,412,662a8.53,8.53,0,0,0,2.42-.35,7.55,7.55,0,0,0,1.76-.7l.59-.35,2.27.84-1.4,14H403.36V672h10.81l.66-5.94.08-.75a3.45,3.45,0,0,1,.1-.57l0-.18H415l-.5.24a9.24,9.24,0,0,1-1.28.39,7.64,7.64,0,0,1-1.88.24,9.83,9.83,0,0,1-7.13-2.65,8.73,8.73,0,0,1-2.74-6.53,9,9,0,0,1,2.87-6.82,10,10,0,0,1,7.17-2.73,11.87,11.87,0,0,1,3.12.4,9.51,9.51,0,0,1,2.45,1,15.51,15.51,0,0,1,1.69,1.17,7.12,7.12,0,0,1,1.06,1Z"/></svg>