<svg id="Laag_1" data-name="Laag 1" xmlns="http://www.w3.org/2000/svg" xmlns:xlink="http://www.w3.org/1999/xlink" viewBox="0 0 550 770"><defs><style>.cls-1{fill:#c0392b;}.cls-2{clip-path:url(#clip-path);}.cls-3,.cls-4{fill:none;stroke-miterlimit:10;}.cls-3{stroke:#e74c3c;}.cls-4{stroke:#c0392b;stroke-width:2px;}.cls-5{fill:#fff;}</style><clipPath id="clip-path"><rect class="cls-1" x="51.2" y="52.31" width="447.6" height="665.38" rx="40" ry="40"/></clipPath></defs><title>CoostoPoker_20</title><rect class="cls-1" x="51.2" y="52.31" width="447.6" height="665.38" rx="40" ry="40"/><g class="cls-2"><circle class="cls-3" cx="275" cy="385" r="299.36"/><circle class="cls-3" cx="275" cy="385" r="239.49"/><circle class="cls-3" cx="275" cy="385" r="185.6"/><circle class="cls-3" cx="275" cy="385" r="121.18"/><circle class="cls-3" cx="275" cy="385" r="61.33"/></g><rect class="cls-4" x="24.58" y="25.26" width="500.84" height="719.49" rx="45" ry="45"/><path class="cls-5" d="M188.09,427.53a40.38,40.38,0,0,1,1.82-12.26,36.88,36.88,0,0,1,4.93-10.18,61.22,61.22,0,0,1,7.17-8.42,87.71,87.71,0,0,1,8.5-7.36q4.44-3.37,8.88-6.54t8.63-6.31a65.4,65.4,0,0,0,7.4-6.38,26.44,26.44,0,0,0,5.09-7.17,18.6,18.6,0,0,0,1.88-8.15,17.59,17.59,0,0,0-5.68-13.59Q231,336,222,336a21.87,21.87,0,0,0-7.94,1.49,22.74,22.74,0,0,0-6.4,3.6,48.44,48.44,0,0,0-4.51,4.23,20.76,20.76,0,0,0-2.81,3.6l-.92,1.49-10.89-7.83.61-1.2q.38-.73,1.9-2.94a43.54,43.54,0,0,1,3.3-4.21,41.06,41.06,0,0,1,4.78-4.45,39.35,39.35,0,0,1,6.33-4.21,36.37,36.37,0,0,1,8-3,38.6,38.6,0,0,1,9.71-1.2q15.72,0,25.73,8.89t10,23.34a33.84,33.84,0,0,1-3,14.1A38.09,38.09,0,0,1,248.15,379a97,97,0,0,1-10.52,9.09q-5.75,4.31-11.54,8.15T215.49,404a35.38,35.38,0,0,0-7.83,8.54,18.66,18.66,0,0,0-3.09,9.95h56.09V436.2H188.82A62.17,62.17,0,0,1,188.09,427.53Z"/><path class="cls-5" d="M280.82,379.6A127.08,127.08,0,0,1,282.08,361a73.55,73.55,0,0,1,4.16-15.95,42.23,42.23,0,0,1,7.41-12.63,31.35,31.35,0,0,1,11.42-8.13,43.17,43.17,0,0,1,31.47,0A31.64,31.64,0,0,1,348,332.45a41.77,41.77,0,0,1,7.45,12.63A73.67,73.67,0,0,1,359.64,361a138.56,138.56,0,0,1,0,37.23,74.15,74.15,0,0,1-4.16,16A42.08,42.08,0,0,1,348,426.95a31.81,31.81,0,0,1-11.49,8.2,42.7,42.7,0,0,1-31.47,0,31.51,31.51,0,0,1-11.42-8.2,42.54,42.54,0,0,1-7.41-12.69,74,74,0,0,1-4.16-16A128.15,128.15,0,0,1,280.82,379.6Zm16.33,0a118.38,118.38,0,0,0,1.13,17.33A57.13,57.13,0,0,0,302,410.7a21.44,21.44,0,0,0,7.33,9.52,19.35,19.35,0,0,0,11.43,3.32,19.19,19.19,0,0,0,16.38-8.35,33.77,33.77,0,0,0,4.37-9.52,65.23,65.23,0,0,0,2.38-12,135.74,135.74,0,0,0,.66-14,133.74,133.74,0,0,0-.66-13.93,64.4,64.4,0,0,0-2.38-11.94,33.88,33.88,0,0,0-4.37-9.48,19.22,19.22,0,0,0-6.79-6,21.62,21.62,0,0,0-19.11,0,19.22,19.22,0,0,0-6.79,6,33.06,33.06,0,0,0-4.33,9.48,66.37,66.37,0,0,0-2.34,11.94A133.17,133.17,0,0,0,297.15,379.6Z"/><path class="cls-5" d="M93.71,119.34a10.13,10.13,0,0,1,.46-3.06,9.24,9.24,0,0,1,1.23-2.54,15.18,15.18,0,0,1,1.79-2.1,21.76,21.76,0,0,1,2.13-1.84q1.11-.84,2.22-1.63t2.16-1.58a16.31,16.31,0,0,0,1.85-1.6,6.65,6.65,0,0,0,1.27-1.79,4.67,4.67,0,0,0,.47-2,4.4,4.4,0,0,0-1.42-3.4,5.21,5.21,0,0,0-3.67-1.3,5.45,5.45,0,0,0-2,.37,5.68,5.68,0,0,0-1.6.9,11.82,11.82,0,0,0-1.13,1.06,5.14,5.14,0,0,0-.7.9l-.23.37-2.72-2,.15-.3c.06-.12.22-.37.47-.74A11.12,11.12,0,0,1,95.28,96a10.24,10.24,0,0,1,1.2-1.11,9.77,9.77,0,0,1,1.58-1.05,9,9,0,0,1,2-.74,9.62,9.62,0,0,1,2.43-.3A9.33,9.33,0,0,1,108.9,95a7.43,7.43,0,0,1,2.5,5.83,8.48,8.48,0,0,1-.74,3.53,9.54,9.54,0,0,1-1.94,2.84,24.42,24.42,0,0,1-2.63,2.27q-1.44,1.08-2.88,2t-2.65,1.92a8.83,8.83,0,0,0-2,2.13,4.67,4.67,0,0,0-.77,2.49h14v3.44h-18A15.42,15.42,0,0,1,93.71,119.34Z"/><path class="cls-5" d="M116.89,107.36a31.83,31.83,0,0,1,.31-4.64,18.35,18.35,0,0,1,1-4,10.56,10.56,0,0,1,1.85-3.16,7.84,7.84,0,0,1,2.85-2,10.8,10.8,0,0,1,7.87,0,7.89,7.89,0,0,1,2.87,2,10.45,10.45,0,0,1,1.86,3.16,18.35,18.35,0,0,1,1,4,34.59,34.59,0,0,1,0,9.31,18.48,18.48,0,0,1-1,4,10.55,10.55,0,0,1-1.86,3.17,7.94,7.94,0,0,1-2.87,2,10.67,10.67,0,0,1-7.87,0,7.88,7.88,0,0,1-2.85-2,10.66,10.66,0,0,1-1.85-3.17,18.48,18.48,0,0,1-1-4A32.11,32.11,0,0,1,116.89,107.36Zm4.08,0a29.45,29.45,0,0,0,.28,4.33,14.24,14.24,0,0,0,.94,3.44,5.36,5.36,0,0,0,1.83,2.38,4.84,4.84,0,0,0,2.86.83,4.8,4.8,0,0,0,4.1-2.09,8.48,8.48,0,0,0,1.09-2.38,16.28,16.28,0,0,0,.59-3,33.66,33.66,0,0,0,.17-3.51,33.17,33.17,0,0,0-.17-3.48,16.07,16.07,0,0,0-.59-3A8.49,8.49,0,0,0,131,98.52a4.8,4.8,0,0,0-1.7-1.51,5.41,5.41,0,0,0-4.78,0,4.79,4.79,0,0,0-1.7,1.51,8.22,8.22,0,0,0-1.08,2.37,16.56,16.56,0,0,0-.59,3A33.7,33.7,0,0,0,121,107.36Z"/><path class="cls-5" d="M455,649.31a10.1,10.1,0,0,1-.46,3.06,9.24,9.24,0,0,1-1.23,2.54,15.32,15.32,0,0,1-1.79,2.1,22,22,0,0,1-2.12,1.84q-1.11.84-2.22,1.63T445,662.07a16.3,16.3,0,0,0-1.85,1.6,6.61,6.61,0,0,0-1.27,1.79,4.65,4.65,0,0,0-.47,2,4.39,4.39,0,0,0,1.42,3.4,5.21,5.21,0,0,0,3.67,1.3,5.46,5.46,0,0,0,2-.37,5.71,5.71,0,0,0,1.6-.9,12,12,0,0,0,1.13-1.06,5.18,5.18,0,0,0,.7-.9l.23-.37,2.72,2-.15.3q-.1.18-.47.73a11.1,11.1,0,0,1-.82,1.05,10.39,10.39,0,0,1-1.19,1.11,9.82,9.82,0,0,1-1.58,1.05,9.11,9.11,0,0,1-2,.74,9.61,9.61,0,0,1-2.43.3,9.32,9.32,0,0,1-6.43-2.22,7.43,7.43,0,0,1-2.5-5.83,8.47,8.47,0,0,1,.74-3.53,9.51,9.51,0,0,1,1.94-2.84,24.22,24.22,0,0,1,2.63-2.27q1.44-1.08,2.88-2t2.65-1.92a8.83,8.83,0,0,0,2-2.13,4.66,4.66,0,0,0,.77-2.49h-14v-3.44h18A15.39,15.39,0,0,1,455,649.31Z"/><path class="cls-5" d="M431.82,661.29a31.84,31.84,0,0,1-.31,4.64,18.42,18.42,0,0,1-1,4,10.54,10.54,0,0,1-1.85,3.16,7.85,7.85,0,0,1-2.85,2,10.8,10.8,0,0,1-7.87,0,7.92,7.92,0,0,1-2.87-2,10.45,10.45,0,0,1-1.86-3.16,18.42,18.42,0,0,1-1-4,34.59,34.59,0,0,1,0-9.31,18.53,18.53,0,0,1,1-4,10.54,10.54,0,0,1,1.86-3.17,8,8,0,0,1,2.87-2,10.67,10.67,0,0,1,7.87,0,7.87,7.87,0,0,1,2.85,2,10.62,10.62,0,0,1,1.85,3.17,18.53,18.53,0,0,1,1,4A32.12,32.12,0,0,1,431.82,661.29Zm-4.08,0a29.59,29.59,0,0,0-.28-4.33,14.29,14.29,0,0,0-.94-3.44,5.36,5.36,0,0,0-1.83-2.38,4.84,4.84,0,0,0-2.86-.83,4.8,4.8,0,0,0-4.09,2.09,8.42,8.42,0,0,0-1.09,2.38,16.26,16.26,0,0,0-.59,3,33.93,33.93,0,0,0-.17,3.51,33.4,33.4,0,0,0,.17,3.48,16.06,16.06,0,0,0,.59,3,8.44,8.44,0,0,0,1.09,2.37,4.8,4.8,0,0,0,1.7,1.51,5.4,5.4,0,0,0,4.78,0,4.8,4.8,0,0,0,1.7-1.51,8.25,8.25,0,0,0,1.08-2.37,16.55,16.55,0,0,0,.58-3A33.4,33.4,0,0,0,427.74,661.29Z"/></svg>