<svg id="Laag_1" data-name="Laag 1" xmlns="http://www.w3.org/2000/svg" xmlns:xlink="http://www.w3.org/1999/xlink" viewBox="0 0 550 770"><defs><style>.cls-1{fill:#27ae60;}.cls-2{clip-path:url(#clip-path);}.cls-3{opacity:0.25;}.cls-4,.cls-5{fill:none;stroke-miterlimit:10;}.cls-4{stroke:#eefff4;}.cls-5{stroke:#27ae60;stroke-width:2px;}.cls-6{fill:#fff;}</style><clipPath id="clip-path"><rect class="cls-1" x="51.2" y="52.31" width="447.6" height="665.38" rx="40" ry="40"/></clipPath></defs><title>CoostoPoker_S</title><rect class="cls-1" x="51.2" y="52.31" width="447.6" height="665.38" rx="40" ry="40"/><g class="cls-2"><g class="cls-3"><circle class="cls-4" cx="275" cy="385" r="299.36"/><circle class="cls-4" cx="275" cy="385" r="239.49"/><circle class="cls-4" cx="275" cy="385" r="185.6"/><circle class="cls-4" cx="275" cy="385" r="121.18"/><circle class="cls-4" cx="275" cy="385" r="61.33"/></g></g><rect class="cls-5" x="24.58" y="25.26" width="500.84" height="719.49" rx="45" ry="45"/><path class="cls-6" d="M238,423.39l9-12q.47.47,1.36,1.29t3.85,2.94a44.84,44.84,0,0,0,6.11,3.68,45.67,45.67,0,0,0,7.9,2.9,34.73,34.73,0,0,0,9.42,1.33,21.74,21.74,0,0,0,13.93-4.47,14.74,14.74,0,0,0,5.64-12.22,13.85,13.85,0,0,0-1.88-7.13,18.56,18.56,0,0,0-5-5.56,52.72,52.72,0,0,0-7.28-4.47q-4.11-2.11-8.65-4.07t-9-4a63.67,63.67,0,0,1-8.57-4.78,43.1,43.1,0,0,1-7.21-6,24.17,24.17,0,0,1-5-7.87,27,27,0,0,1-1.86-10.18q0-13.27,10.3-22.36t26-9.09a53.7,53.7,0,0,1,11.27,1.17,43.52,43.52,0,0,1,9,2.8,64.07,64.07,0,0,1,6.29,3.3,25.36,25.36,0,0,1,4,2.84l1.24,1.17-7.08,13.13q-.39-.39-1.21-1.06t-3.35-2.35a41.86,41.86,0,0,0-5.26-3A39.08,39.08,0,0,0,285,337a31.94,31.94,0,0,0-8.11-1.06q-8.92,0-14.72,4.82a14.71,14.71,0,0,0-5.79,11.71,12.75,12.75,0,0,0,1.88,6.82,17.53,17.53,0,0,0,5,5.25,52.62,52.62,0,0,0,7.28,4.15q4.11,2,8.65,3.84t9,4a61.33,61.33,0,0,1,8.57,4.82,41.52,41.52,0,0,1,7.21,6.11,25.05,25.05,0,0,1,5,8.23A31.39,31.39,0,0,1,301.23,429q-9.71,9.15-26,9.15a55.73,55.73,0,0,1-13-1.51,45.62,45.62,0,0,1-10.51-3.71q-4.2-2.2-7.48-4.37a32.73,32.73,0,0,1-4.76-3.63Z"/><path class="cls-6" d="M93.16,118.3l2.25-3,.34.32a11.81,11.81,0,0,0,1,.73,11.13,11.13,0,0,0,1.53.92,11.41,11.41,0,0,0,2,.72,8.7,8.7,0,0,0,2.36.33,5.44,5.44,0,0,0,3.48-1.12,3.69,3.69,0,0,0,1.41-3.06,3.47,3.47,0,0,0-.47-1.78,4.65,4.65,0,0,0-1.26-1.39,13.1,13.1,0,0,0-1.82-1.12q-1-.53-2.16-1t-2.26-1a15.89,15.89,0,0,1-2.14-1.19,10.81,10.81,0,0,1-1.8-1.49,6.05,6.05,0,0,1-1.25-2,6.79,6.79,0,0,1-.46-2.55,7.17,7.17,0,0,1,2.57-5.59,9.46,9.46,0,0,1,6.5-2.27,13.4,13.4,0,0,1,2.82.29,10.89,10.89,0,0,1,2.24.7,16.16,16.16,0,0,1,1.57.83,6.38,6.38,0,0,1,1,.71l.31.29-1.77,3.28-.3-.26q-.21-.17-.84-.59a10.39,10.39,0,0,0-1.31-.74,9.78,9.78,0,0,0-1.7-.59,8,8,0,0,0-2-.26,5.56,5.56,0,0,0-3.68,1.2,3.68,3.68,0,0,0-1.45,2.93,3.18,3.18,0,0,0,.47,1.7,4.36,4.36,0,0,0,1.26,1.31,13.14,13.14,0,0,0,1.82,1c.68.33,1.41.65,2.16,1s1.51.64,2.26,1a15.31,15.31,0,0,1,2.14,1.2,10.4,10.4,0,0,1,1.8,1.53,6.26,6.26,0,0,1,1.25,2.06,7.85,7.85,0,0,1-2,8.34,9.08,9.08,0,0,1-6.49,2.29,14,14,0,0,1-3.25-.38,11.4,11.4,0,0,1-2.63-.93,21.61,21.61,0,0,1-1.87-1.09,8.25,8.25,0,0,1-1.19-.91Z"/><path class="cls-6" d="M455.56,650.34l-2.25,3L453,653a12,12,0,0,0-1-.73,11.2,11.2,0,0,0-1.53-.92,11.41,11.41,0,0,0-2-.72,8.69,8.69,0,0,0-2.36-.33,5.44,5.44,0,0,0-3.48,1.12,3.69,3.69,0,0,0-1.41,3.06,3.46,3.46,0,0,0,.47,1.78,4.63,4.63,0,0,0,1.26,1.39,13.16,13.16,0,0,0,1.82,1.12q1,.53,2.16,1t2.26,1a15.88,15.88,0,0,1,2.14,1.19,10.77,10.77,0,0,1,1.8,1.49,6.05,6.05,0,0,1,1.25,2,6.77,6.77,0,0,1,.46,2.55,7.17,7.17,0,0,1-2.57,5.59,9.46,9.46,0,0,1-6.5,2.27,13.42,13.42,0,0,1-2.82-.29,10.89,10.89,0,0,1-2.24-.7,16.14,16.14,0,0,1-1.57-.83,6.35,6.35,0,0,1-1-.71l-.31-.29,1.77-3.28.3.26q.21.17.84.59a10.4,10.4,0,0,0,1.32.74,9.77,9.77,0,0,0,1.69.59,8,8,0,0,0,2,.26,5.56,5.56,0,0,0,3.68-1.2,3.68,3.68,0,0,0,1.45-2.93,3.19,3.19,0,0,0-.47-1.7,4.38,4.38,0,0,0-1.26-1.31,13.2,13.2,0,0,0-1.82-1q-1-.49-2.16-1t-2.26-1a15.33,15.33,0,0,1-2.14-1.2,10.4,10.4,0,0,1-1.8-1.53,6.28,6.28,0,0,1-1.25-2.06,7.85,7.85,0,0,1,2-8.34,9.07,9.07,0,0,1,6.49-2.29,13.94,13.94,0,0,1,3.25.38,11.39,11.39,0,0,1,2.63.93A21.58,21.58,0,0,1,454,649a8.19,8.19,0,0,1,1.19.91Z"/></svg>