<svg id="Laag_1" data-name="Laag 1" xmlns="http://www.w3.org/2000/svg" xmlns:xlink="http://www.w3.org/1999/xlink" viewBox="0 0 550 770"><defs><style>.cls-1{fill:#2c3e50;}.cls-2{clip-path:url(#clip-path);}.cls-3{opacity:0.25;}.cls-4,.cls-5{fill:none;stroke-miterlimit:10;}.cls-4{stroke:#79a8ad;}.cls-5{stroke:#2c3e50;stroke-width:2px;}.cls-6{fill:#fff;}</style><clipPath id="clip-path"><rect class="cls-1" x="51.2" y="52.31" width="447.6" height="665.38" rx="40" ry="40"/></clipPath></defs><title>CoostoPoker_question</title><rect class="cls-1" x="51.2" y="52.31" width="447.6" height="665.38" rx="40" ry="40"/><g class="cls-2"><g class="cls-3"><circle class="cls-4" cx="275" cy="385" r="299.36"/><circle class="cls-4" cx="275" cy="385" r="239.49"/><circle class="cls-4" cx="275" cy="385" r="185.6"/><circle class="cls-4" cx="275" cy="385" r="121.18"/><circle class="cls-4" cx="275" cy="385" r="61.33"/></g></g><rect class="cls-5" x="24.58" y="25.26" width="500.84" height="719.49" rx="45" ry="45"/><path class="cls-6" d="M223.28,303.29q.73-.61,2-1.71a54.73,54.73,0,0,1,5.55-3.91,64.61,64.61,0,0,1,9-4.88A72,72,0,0,1,252,288.94a64.74,64.74,0,0,1,15-1.77q21.76,0,37,12.73t15.28,33a47.45,47.45,0,0,1-2.45,15.51,42.82,42.82,0,0,1-6.36,12.22,87.55,87.55,0,0,1-8.62,9.67q-4.71,4.56-9.47,8.7a117,117,0,0,0-8.7,8.33,35.9,35.9,0,0,0-6.39,9.49,26.65,26.65,0,0,0-2.46,11.37v10.22H251.31v-11.8a43.64,43.64,0,0,1,2.31-14.35,39,39,0,0,1,6.09-11.49,97.93,97.93,0,0,1,8.28-9.24q4.5-4.44,9-8.45t8.31-8.09a33.74,33.74,0,0,0,6.15-9.24,26.42,26.42,0,0,0,2.33-11,22.45,22.45,0,0,0-8.08-17.63Q277.63,310,265.28,310a40.81,40.81,0,0,0-14.1,2.61,49,49,0,0,0-10.8,5.17l-3.66,2.68Zm27.54,163.94V442.45h24.66v24.78Z"/><path class="cls-6" d="M92.78,95.28l.31-.27a8.82,8.82,0,0,1,.89-.62,10.42,10.42,0,0,1,1.45-.78A11.62,11.62,0,0,1,97.37,93a10.37,10.37,0,0,1,2.4-.28,9,9,0,0,1,5.93,2,6.55,6.55,0,0,1,2.45,5.27,7.59,7.59,0,0,1-.39,2.48,6.86,6.86,0,0,1-1,2,14,14,0,0,1-1.38,1.55q-.75.73-1.52,1.39a19,19,0,0,0-1.39,1.33,5.76,5.76,0,0,0-1,1.52,4.27,4.27,0,0,0-.39,1.82v1.63H97.27V111.8a7,7,0,0,1,.37-2.3,6.24,6.24,0,0,1,1-1.84,15.75,15.75,0,0,1,1.32-1.48q.72-.71,1.44-1.35t1.33-1.29a5.44,5.44,0,0,0,1-1.48,4.25,4.25,0,0,0,.37-1.76,3.59,3.59,0,0,0-1.29-2.82,4.8,4.8,0,0,0-3.27-1.13,6.52,6.52,0,0,0-2.26.42,7.79,7.79,0,0,0-1.73.83l-.59.43Zm4.41,26.23v-4h3.95v4Z"/><path class="cls-6" d="M455.94,673.37l-.31.27a8.82,8.82,0,0,1-.89.63,10.42,10.42,0,0,1-1.45.78,11.62,11.62,0,0,1-1.94.62,10.37,10.37,0,0,1-2.4.28,9,9,0,0,1-5.93-2,6.55,6.55,0,0,1-2.45-5.27,7.59,7.59,0,0,1,.39-2.48,6.86,6.86,0,0,1,1-2,14,14,0,0,1,1.38-1.55q.75-.73,1.52-1.39a19,19,0,0,0,1.39-1.33,5.76,5.76,0,0,0,1-1.52,4.27,4.27,0,0,0,.39-1.82V655h3.77v1.89a7,7,0,0,1-.37,2.3,6.24,6.24,0,0,1-1,1.84,15.75,15.75,0,0,1-1.32,1.48q-.72.71-1.44,1.35T446,665.11a5.43,5.43,0,0,0-1,1.48,4.24,4.24,0,0,0-.37,1.76,3.59,3.59,0,0,0,1.29,2.82,4.8,4.8,0,0,0,3.27,1.13,6.54,6.54,0,0,0,2.26-.42,7.79,7.79,0,0,0,1.73-.83l.59-.43Zm-4.41-26.23v4h-3.95v-4Z"/></svg>