<svg id="Laag_1" data-name="Laag 1" xmlns="http://www.w3.org/2000/svg" xmlns:xlink="http://www.w3.org/1999/xlink" viewBox="0 0 550 770"><defs><style>.cls-1{fill:#d35400;}.cls-2{clip-path:url(#clip-path);}.cls-3,.cls-4{fill:none;stroke-miterlimit:10;}.cls-3{stroke:#d37c4c;}.cls-4{stroke:#d35400;stroke-width:2px;}.cls-5{fill:#fff;}</style><clipPath id="clip-path"><rect class="cls-1" x="51.2" y="52.31" width="447.6" height="665.38" rx="40" ry="40"/></clipPath></defs><title>CoostoPoker_XL</title><rect class="cls-1" x="51.2" y="52.31" width="447.6" height="665.38" rx="40" ry="40"/><g class="cls-2"><circle class="cls-3" cx="275" cy="385" r="299.36"/><circle class="cls-3" cx="275" cy="385" r="239.49"/><circle class="cls-3" cx="275" cy="385" r="185.6"/><circle class="cls-3" cx="275" cy="385" r="121.18"/><circle class="cls-3" cx="275" cy="385" r="61.33"/></g><rect class="cls-4" x="24.58" y="25.26" width="500.84" height="719.49" rx="45" ry="45"/><path class="cls-5" d="M187.27,436.2,223,378l-33.44-54.77h18.2l17.81,30.55,7.19,13.44H233a134.71,134.71,0,0,1,6.88-13.44l17.73-30.55h18.28L242.5,378l35.62,58.2H260.24l-20.47-34.69-7.19-13h-.31a138.49,138.49,0,0,1-6.72,13L205,436.2Z"/><path class="cls-5" d="M297,436.2v-113h15.78v99.22h50.63V436.2Z"/><path class="cls-5" d="M92.38,121.51,101.31,107,93,93.26H97.5L102,100.9l1.8,3.36h.08a33.8,33.8,0,0,1,1.72-3.36L110,93.26h4.57L106.19,107l8.91,14.55h-4.47l-5.12-8.67-1.8-3.24h-.08a34.49,34.49,0,0,1-1.68,3.24l-5.14,8.67Z"/><path class="cls-5" d="M119.83,121.51V93.26h3.95v24.8h12.66v3.44Z"/><path class="cls-5" d="M456.35,647.14l-8.93,14.55,8.36,13.69h-4.55l-4.45-7.64-1.8-3.36h-.08a33.8,33.8,0,0,1-1.72,3.36l-4.43,7.64h-4.57l8.36-13.69-8.91-14.55h4.47l5.12,8.67,1.8,3.24h.08a34.49,34.49,0,0,1,1.68-3.24l5.14-8.67Z"/><path class="cls-5" d="M428.9,647.14v28.24H425v-24.8H412.3v-3.44Z"/></svg>