<svg id="Laag_1" data-name="Laag 1" xmlns="http://www.w3.org/2000/svg" xmlns:xlink="http://www.w3.org/1999/xlink" viewBox="0 0 550 770"><defs><style>.cls-1{fill:#8f5bb5;}.cls-2{clip-path:url(#clip-path);}.cls-3{opacity:0.25;}.cls-4,.cls-5{fill:none;stroke-miterlimit:10;}.cls-4{stroke:#ebd0fc;}.cls-5{stroke:#8f5bb5;stroke-width:2px;}.cls-6{fill:#fff;}</style><clipPath id="clip-path"><rect class="cls-1" x="51.2" y="52.31" width="447.6" height="665.38" rx="40" ry="40"/></clipPath></defs><title>CoostoPoker_XXS</title><rect class="cls-1" x="51.2" y="52.31" width="447.6" height="665.38" rx="40" ry="40"/><g class="cls-2"><g class="cls-3"><circle class="cls-4" cx="275" cy="385" r="299.36"/><circle class="cls-4" cx="275" cy="385" r="239.49"/><circle class="cls-4" cx="275" cy="385" r="185.6"/><circle class="cls-4" cx="275" cy="385" r="121.18"/><circle class="cls-4" cx="275" cy="385" r="61.33"/></g></g><rect class="cls-5" x="24.58" y="25.26" width="500.84" height="719.49" rx="45" ry="45"/><path class="cls-6" d="M137,436.2l35.7-58.2-33.44-54.77h18.2l17.81,30.55,7.19,13.44h.31a134.71,134.71,0,0,1,6.88-13.44l17.73-30.55h18.28L192.19,378l35.63,58.2H209.92l-20.47-34.69-7.19-13H182a138.49,138.49,0,0,1-6.72,13L154.69,436.2Z"/><path class="cls-6" d="M234.84,436.2l35.7-58.2-33.44-54.77h18.2l17.81,30.55,7.19,13.44h.31a134.71,134.71,0,0,1,6.88-13.44l17.73-30.55h18.28L290.08,378l35.63,58.2H307.81l-20.47-34.69-7.19-13h-.31a138.49,138.49,0,0,1-6.72,13L252.58,436.2Z"/><path class="cls-6" d="M335.84,423.39l9-12q.47.47,1.36,1.29t3.85,2.94a44.84,44.84,0,0,0,6.11,3.68,45.67,45.67,0,0,0,7.9,2.9,34.73,34.73,0,0,0,9.42,1.33,21.74,21.74,0,0,0,13.93-4.47A14.74,14.74,0,0,0,393,406.86a13.85,13.85,0,0,0-1.88-7.13,18.56,18.56,0,0,0-5-5.56,52.72,52.72,0,0,0-7.28-4.47q-4.11-2.11-8.65-4.07t-9-4a63.67,63.67,0,0,1-8.57-4.78,43.1,43.1,0,0,1-7.21-6,24.17,24.17,0,0,1-5-7.87,27,27,0,0,1-1.86-10.18q0-13.27,10.3-22.36t26-9.09a53.7,53.7,0,0,1,11.27,1.17,43.52,43.52,0,0,1,9,2.8,64.07,64.07,0,0,1,6.29,3.3,25.36,25.36,0,0,1,4,2.84l1.24,1.17-7.08,13.13q-.39-.39-1.21-1.06T395,342.35a41.86,41.86,0,0,0-5.26-3,39.08,39.08,0,0,0-6.78-2.35,31.94,31.94,0,0,0-8.11-1.06q-8.92,0-14.72,4.82a14.71,14.71,0,0,0-5.79,11.71,12.75,12.75,0,0,0,1.88,6.82,17.53,17.53,0,0,0,5,5.25,52.62,52.62,0,0,0,7.28,4.15q4.11,2,8.65,3.84t9,4a61.33,61.33,0,0,1,8.57,4.82,41.52,41.52,0,0,1,7.21,6.11,25.05,25.05,0,0,1,5,8.23A31.39,31.39,0,0,1,399.12,429q-9.71,9.15-26,9.15a55.73,55.73,0,0,1-13-1.51,45.62,45.62,0,0,1-10.51-3.71q-4.2-2.2-7.48-4.37a32.73,32.73,0,0,1-4.76-3.63Z"/><path class="cls-6" d="M92.38,121.51,101.31,107,92.95,93.27H97.5L102,100.9l1.8,3.36h.08a33.8,33.8,0,0,1,1.72-3.36L110,93.27h4.57L106.19,107l8.91,14.55h-4.47l-5.12-8.67-1.8-3.24h-.08a34.49,34.49,0,0,1-1.68,3.24l-5.14,8.67Z"/><path class="cls-6" d="M116.86,121.51,125.78,107l-8.36-13.69H122l4.45,7.64,1.8,3.36h.08A33.8,33.8,0,0,1,130,100.9l4.43-7.64H139L130.66,107l8.91,14.55H135.1L130,112.84l-1.8-3.24h-.08a34.49,34.49,0,0,1-1.68,3.24l-5.14,8.67Z"/><path class="cls-6" d="M142.11,118.3l2.25-3,.34.32a12,12,0,0,0,1,.73,11.2,11.2,0,0,0,1.53.92,11.41,11.41,0,0,0,2,.72,8.69,8.69,0,0,0,2.36.33,5.44,5.44,0,0,0,3.48-1.12,3.69,3.69,0,0,0,1.41-3.06,3.46,3.46,0,0,0-.47-1.78,4.63,4.63,0,0,0-1.26-1.39,13.16,13.16,0,0,0-1.82-1.12q-1-.53-2.16-1t-2.26-1a15.88,15.88,0,0,1-2.14-1.19,10.77,10.77,0,0,1-1.8-1.49,6.05,6.05,0,0,1-1.25-2,6.77,6.77,0,0,1-.46-2.55,7.17,7.17,0,0,1,2.57-5.59,9.46,9.46,0,0,1,6.5-2.27,13.42,13.42,0,0,1,2.82.29,10.89,10.89,0,0,1,2.24.7,16.14,16.14,0,0,1,1.57.83,6.35,6.35,0,0,1,1,.71l.31.29L158,98.9l-.3-.26q-.21-.17-.84-.59a10.4,10.4,0,0,0-1.32-.74,9.77,9.77,0,0,0-1.69-.59,8,8,0,0,0-2-.26,5.56,5.56,0,0,0-3.68,1.2,3.68,3.68,0,0,0-1.45,2.93,3.19,3.19,0,0,0,.47,1.7,4.38,4.38,0,0,0,1.26,1.31,13.2,13.2,0,0,0,1.82,1q1,.49,2.16,1t2.26,1a15.33,15.33,0,0,1,2.14,1.2,10.4,10.4,0,0,1,1.8,1.53,6.28,6.28,0,0,1,1.25,2.06,7.85,7.85,0,0,1-2,8.34,9.07,9.07,0,0,1-6.49,2.29,13.94,13.94,0,0,1-3.25-.38,11.39,11.39,0,0,1-2.63-.93,21.58,21.58,0,0,1-1.87-1.09,8.19,8.19,0,0,1-1.19-.91Z"/><path class="cls-6" d="M456.33,647.16l-8.93,14.55,8.36,13.69h-4.55l-4.45-7.64L445,664.4h-.08a33.8,33.8,0,0,1-1.72,3.36l-4.43,7.64h-4.57l8.36-13.69-8.91-14.55h4.47l5.12,8.67,1.8,3.24h.08a34.49,34.49,0,0,1,1.68-3.24l5.14-8.67Z"/><path class="cls-6" d="M431.86,647.16l-8.93,14.55,8.36,13.69h-4.55l-4.45-7.64-1.8-3.36h-.08a33.8,33.8,0,0,1-1.72,3.36l-4.43,7.64h-4.57l8.36-13.69-8.91-14.55h4.47l5.12,8.67,1.8,3.24h.08a34.49,34.49,0,0,1,1.68-3.24l5.14-8.67Z"/><path class="cls-6" d="M406.61,650.36l-2.25,3L404,653a12,12,0,0,0-1-.73,11.2,11.2,0,0,0-1.53-.92,11.41,11.41,0,0,0-2-.72,8.69,8.69,0,0,0-2.36-.33,5.44,5.44,0,0,0-3.48,1.12,3.69,3.69,0,0,0-1.41,3.06,3.46,3.46,0,0,0,.47,1.78,4.63,4.63,0,0,0,1.26,1.39,13.16,13.16,0,0,0,1.82,1.12q1,.53,2.16,1t2.26,1a15.88,15.88,0,0,1,2.14,1.19,10.77,10.77,0,0,1,1.8,1.49,6.05,6.05,0,0,1,1.25,2,6.77,6.77,0,0,1,.46,2.55,7.17,7.17,0,0,1-2.57,5.59,9.46,9.46,0,0,1-6.5,2.27,13.42,13.42,0,0,1-2.82-.29,10.89,10.89,0,0,1-2.24-.7,16.14,16.14,0,0,1-1.57-.83,6.35,6.35,0,0,1-1-.71l-.31-.29,1.77-3.28.3.26q.21.17.84.59a10.4,10.4,0,0,0,1.32.74,9.77,9.77,0,0,0,1.69.59,8,8,0,0,0,2,.26,5.56,5.56,0,0,0,3.68-1.2,3.68,3.68,0,0,0,1.45-2.93,3.19,3.19,0,0,0-.47-1.7,4.38,4.38,0,0,0-1.26-1.31,13.2,13.2,0,0,0-1.82-1q-1-.49-2.16-1t-2.26-1a15.33,15.33,0,0,1-2.14-1.2,10.4,10.4,0,0,1-1.8-1.53,6.28,6.28,0,0,1-1.25-2.06,7.85,7.85,0,0,1,2-8.34,9.07,9.07,0,0,1,6.49-2.29,13.94,13.94,0,0,1,3.25.38,11.39,11.39,0,0,1,2.63.93,21.58,21.58,0,0,1,1.87,1.09,8.19,8.19,0,0,1,1.19.91Z"/></svg>