<svg id="Laag_1" data-name="Laag 1" xmlns="http://www.w3.org/2000/svg" xmlns:xlink="http://www.w3.org/1999/xlink" viewBox="0 0 550 770"><defs><style>.cls-1{fill:#16a085;}.cls-2{clip-path:url(#clip-path);}.cls-3{opacity:0.25;}.cls-4,.cls-5{fill:none;stroke-miterlimit:10;}.cls-4{stroke:#ccfff5;}.cls-5{stroke:#16a085;stroke-width:2px;}.cls-6{fill:#fff;}</style><clipPath id="clip-path"><rect class="cls-1" x="51.2" y="52.31" width="447.6" height="665.38" rx="40" ry="40"/></clipPath></defs><title>CoostoPoker_M</title><rect class="cls-1" x="51.2" y="52.31" width="447.6" height="665.38" rx="40" ry="40"/><g class="cls-2"><g class="cls-3"><circle class="cls-4" cx="275" cy="385" r="299.36"/><circle class="cls-4" cx="275" cy="385" r="239.49"/><circle class="cls-4" cx="275" cy="385" r="185.6"/><circle class="cls-4" cx="275" cy="385" r="121.18"/><circle class="cls-4" cx="275" cy="385" r="61.33"/></g></g><rect class="cls-5" x="24.58" y="25.26" width="500.84" height="719.49" rx="45" ry="45"/><path class="cls-6" d="M217.62,436.2l9.06-113h16.64l25.94,61.09q1.17,2.81,2.58,6.6t2.19,6.21l.86,2.42h.31q3-9,5.63-15.23l25.86-61.09h16.66l9.2,113H316.76L311.21,365a72.32,72.32,0,0,1-.31-7.27v-2.58q0-2.42.08-4.14l.08-2.66h-.39a173.06,173.06,0,0,1-6,16.64l-22.58,50.86H268L245.59,365q-1.17-2.73-2.7-7T240.43,351l-.94-2.89h-.31v4.84q0,7-.31,12.11L233.4,436.2Z"/><path class="cls-6" d="M94.47,121.51l2.27-28.24h4.16l6.48,15.27q.29.7.64,1.65t.55,1.55l.21.61h.08q.76-2.25,1.41-3.81l6.46-15.27h4.17l2.3,28.24h-3.95l-1.39-17.79q-.08-.76-.08-1.82v-.64q0-.6,0-1l0-.66h-.1a43,43,0,0,1-1.5,4.16l-5.64,12.71h-3.52l-5.61-12.71q-.29-.68-.67-1.74t-.62-1.78l-.23-.72h-.08v1.21q0,1.74-.08,3l-1.37,17.79Z"/><path class="cls-6" d="M454.24,647.14,452,675.39h-4.16l-6.48-15.27q-.29-.7-.64-1.65t-.55-1.55l-.21-.61h-.08q-.76,2.25-1.41,3.81L432,675.39h-4.17l-2.3-28.24h3.95l1.39,17.79q.08.76.08,1.82v.64q0,.6,0,1l0,.66h.1a43.13,43.13,0,0,1,1.5-4.16l5.64-12.71h3.52l5.61,12.71q.29.68.67,1.74t.62,1.78l.23.72h.08V668q0-1.74.08-3l1.37-17.79Z"/></svg>