<svg id="Laag_1" data-name="Laag 1" xmlns="http://www.w3.org/2000/svg" xmlns:xlink="http://www.w3.org/1999/xlink" viewBox="0 0 550 770"><defs><style>.cls-1{fill:#f39c12;}.cls-2{clip-path:url(#clip-path);}.cls-3{opacity:0.25;}.cls-4,.cls-5{fill:none;stroke-miterlimit:10;}.cls-4{stroke:#ffffeb;}.cls-5{stroke:#f39c12;stroke-width:2px;}.cls-6{fill:#fff;}</style><clipPath id="clip-path"><rect class="cls-1" x="51.2" y="52.31" width="447.6" height="665.38" rx="40" ry="40"/></clipPath></defs><title>CoostoPoker_8</title><rect class="cls-1" x="51.2" y="52.31" width="447.6" height="665.38" rx="40" ry="40"/><g class="cls-2"><g class="cls-3"><circle class="cls-4" cx="275" cy="385" r="299.36"/><circle class="cls-4" cx="275" cy="385" r="239.49"/><circle class="cls-4" cx="275" cy="385" r="185.6"/><circle class="cls-4" cx="275" cy="385" r="121.18"/><circle class="cls-4" cx="275" cy="385" r="61.33"/></g></g><rect class="cls-5" x="24.58" y="25.26" width="500.84" height="719.49" rx="45" ry="45"/><path class="cls-6" d="M235.59,403.6a29,29,0,0,1,1.64-9.58,33.93,33.93,0,0,1,3.75-7.86,43.24,43.24,0,0,1,5.09-6.14,57.15,57.15,0,0,1,4.5-4.22q1.52-1.21,3.09-2.31-12.6-9.15-12.6-22.6a28.83,28.83,0,0,1,1.37-8.87,27.11,27.11,0,0,1,4.21-8.05,29.15,29.15,0,0,1,6.91-6.57,33.51,33.51,0,0,1,9.91-4.42,47.34,47.34,0,0,1,12.8-1.64q15.83,0,25.67,8.21t9.83,22q0,14.47-13.37,29.4a36,36,0,0,1,10.49,10.17,24.85,24.85,0,0,1,3.74,13.92,30.76,30.76,0,0,1-4.56,16.3,33.56,33.56,0,0,1-13.26,12.13A41.4,41.4,0,0,1,275,438.15q-17.05,0-28.24-9.67T235.59,403.6Zm16.33-.94A19.32,19.32,0,0,0,258.8,418a25.38,25.38,0,0,0,32,.51,17.3,17.3,0,0,0,6.57-14,11.63,11.63,0,0,0-1.41-5.59,17.29,17.29,0,0,0-3.36-4.46,31,31,0,0,0-5.59-3.95q-3.64-2.11-6.41-3.4T273,383.7q-4.85-2.15-7.57-3.48Q251.92,389.76,251.91,402.66Zm4.92-51.37a15.59,15.59,0,0,0,.47,3.87,9.93,9.93,0,0,0,1.64,3.44q1.17,1.6,2.3,2.93a15.17,15.17,0,0,0,3.2,2.7q2.07,1.37,3.59,2.31a43.15,43.15,0,0,0,4.29,2.23q2.77,1.29,4.45,2l4.87,2q3.2,1.33,4.76,2a31.74,31.74,0,0,0,2.38-2.7q1.21-1.52,3.16-4.5a26.75,26.75,0,0,0,3.16-7,27.85,27.85,0,0,0,1.21-8.13,15.22,15.22,0,0,0-5.57-12.35q-5.58-4.61-14.54-4.61T262,340A14.25,14.25,0,0,0,256.84,351.29Z"/><path class="cls-6" d="M93.79,113.36A7.27,7.27,0,0,1,94.2,111a8.6,8.6,0,0,1,.94-2,10.76,10.76,0,0,1,1.27-1.53,14.14,14.14,0,0,1,1.13-1.06q.38-.3.77-.58a6.79,6.79,0,0,1-3.15-5.65A7.25,7.25,0,0,1,95.5,98a6.77,6.77,0,0,1,1.05-2,7.3,7.3,0,0,1,1.73-1.64,8.36,8.36,0,0,1,2.48-1.1,11.84,11.84,0,0,1,3.2-.41,9.68,9.68,0,0,1,6.42,2.05,6.81,6.81,0,0,1,2.46,5.51q0,3.62-3.34,7.35a9,9,0,0,1,2.62,2.54,6.22,6.22,0,0,1,.93,3.48,7.69,7.69,0,0,1-1.14,4.08,8.4,8.4,0,0,1-3.31,3,11.36,11.36,0,0,1-12-1.26A7.84,7.84,0,0,1,93.79,113.36Zm4.08-.23A4.83,4.83,0,0,0,99.59,117a6.35,6.35,0,0,0,8,.13,4.32,4.32,0,0,0,1.64-3.49,2.91,2.91,0,0,0-.35-1.4,4.32,4.32,0,0,0-.84-1.11,7.73,7.73,0,0,0-1.4-1q-.91-.53-1.6-.85l-1.91-.86q-1.21-.54-1.89-.87Q97.87,109.9,97.87,113.12Zm1.23-12.84a3.9,3.9,0,0,0,.12,1,2.49,2.49,0,0,0,.41.86c.19.27.39.51.57.73a3.82,3.82,0,0,0,.8.67l.9.58a11,11,0,0,0,1.07.56l1.11.5,1.22.51,1.19.51a8.19,8.19,0,0,0,.59-.67q.3-.38.79-1.12a6.7,6.7,0,0,0,.79-1.74,7,7,0,0,0,.3-2,3.81,3.81,0,0,0-1.39-3.09,5.52,5.52,0,0,0-3.64-1.15,5.24,5.24,0,0,0-3.55,1.11A3.56,3.56,0,0,0,99.1,100.28Z"/><path class="cls-6" d="M454.94,655.28a7.26,7.26,0,0,1-.41,2.39,8.5,8.5,0,0,1-.94,2,10.77,10.77,0,0,1-1.27,1.54,14.31,14.31,0,0,1-1.12,1.06c-.25.2-.51.39-.77.58a6.78,6.78,0,0,1,3.15,5.65,7.23,7.23,0,0,1-.34,2.22,6.76,6.76,0,0,1-1.05,2,7.27,7.27,0,0,1-1.73,1.64,8.36,8.36,0,0,1-2.48,1.1,11.83,11.83,0,0,1-3.2.41,9.68,9.68,0,0,1-6.42-2.05,6.81,6.81,0,0,1-2.46-5.51q0-3.62,3.34-7.35a9,9,0,0,1-2.62-2.54,6.22,6.22,0,0,1-.93-3.48,7.69,7.69,0,0,1,1.14-4.07,8.38,8.38,0,0,1,3.31-3,11.36,11.36,0,0,1,12,1.26A7.84,7.84,0,0,1,454.94,655.28Zm-4.08.24a4.83,4.83,0,0,0-1.72-3.83,6.35,6.35,0,0,0-8-.13,4.33,4.33,0,0,0-1.64,3.49,2.91,2.91,0,0,0,.35,1.4,4.31,4.31,0,0,0,.84,1.11,7.78,7.78,0,0,0,1.4,1q.91.53,1.6.85l1.91.86q1.21.54,1.89.87Q450.86,658.74,450.86,655.52Zm-1.23,12.84a3.9,3.9,0,0,0-.12-1,2.48,2.48,0,0,0-.41-.86q-.29-.4-.58-.73a3.77,3.77,0,0,0-.8-.67l-.9-.58a10.78,10.78,0,0,0-1.07-.56l-1.11-.5-1.22-.51-1.19-.51a8,8,0,0,0-.59.67q-.3.38-.79,1.12a6.71,6.71,0,0,0-.79,1.74,7,7,0,0,0-.3,2,3.81,3.81,0,0,0,1.39,3.09,5.52,5.52,0,0,0,3.64,1.15,5.24,5.24,0,0,0,3.55-1.11A3.56,3.56,0,0,0,449.63,668.36Z"/></svg>