<svg id="Laag_1" data-name="Laag 1" xmlns="http://www.w3.org/2000/svg" xmlns:xlink="http://www.w3.org/1999/xlink" viewBox="0 0 550 770"><defs><style>.cls-1{fill:#16a085;}.cls-2{clip-path:url(#clip-path);}.cls-3{opacity:0.25;}.cls-4,.cls-5{fill:none;stroke-miterlimit:10;}.cls-4{stroke:#ccfff5;}.cls-5{stroke:#16a085;stroke-width:2px;}.cls-6{fill:#fff;}</style><clipPath id="clip-path"><rect class="cls-1" x="51.2" y="52.31" width="447.6" height="665.38" rx="40" ry="40"/></clipPath></defs><title>CoostoPoker_5</title><rect class="cls-1" x="51.2" y="52.31" width="447.6" height="665.38" rx="40" ry="40"/><g class="cls-2"><g class="cls-3"><circle class="cls-4" cx="275" cy="385" r="299.36"/><circle class="cls-4" cx="275" cy="385" r="239.49"/><circle class="cls-4" cx="275" cy="385" r="185.6"/><circle class="cls-4" cx="275" cy="385" r="121.18"/><circle class="cls-4" cx="275" cy="385" r="61.33"/></g></g><rect class="cls-5" x="24.58" y="25.26" width="500.84" height="719.49" rx="45" ry="45"/><path class="cls-6" d="M237.62,422.29l8.83-11.52,1.05,1.29a31.72,31.72,0,0,0,3,2.92,34.32,34.32,0,0,0,5,3.7,32,32,0,0,0,6.91,2.92,29.16,29.16,0,0,0,8.71,1.32,25.75,25.75,0,0,0,17.54-6.38,20.82,20.82,0,0,0,7.3-16.43,21.18,21.18,0,0,0-7.39-16.58Q281.27,377,270.24,377a34.12,34.12,0,0,0-9.7,1.41,30.33,30.33,0,0,0-7,2.81l-2.35,1.41-9.07-3.37,5.61-56h57V337H261.49l-2.65,23.78-.33,3a13.72,13.72,0,0,1-.4,2.29l-.16.7h.31q.7-.39,2-1a37.21,37.21,0,0,1,5.13-1.56,30.45,30.45,0,0,1,7.52-1q17.55,0,28.51,10.6a34.9,34.9,0,0,1,11,26.12q0,16.36-11.48,27.28t-28.67,10.92a47.49,47.49,0,0,1-12.46-1.62,38.14,38.14,0,0,1-9.8-3.94,62.13,62.13,0,0,1-6.76-4.69,28.81,28.81,0,0,1-4.26-4Z"/><path class="cls-6" d="M93.42,118l2.21-2.88.26.32a8,8,0,0,0,.76.73,8.65,8.65,0,0,0,1.26.92,8,8,0,0,0,1.73.73,7.29,7.29,0,0,0,2.18.33,6.44,6.44,0,0,0,4.38-1.6,5.2,5.2,0,0,0,1.83-4.11,5.29,5.29,0,0,0-1.85-4.15,6.69,6.69,0,0,0-4.61-1.64,8.53,8.53,0,0,0-2.42.35,7.55,7.55,0,0,0-1.76.7l-.59.35-2.27-.84,1.4-14H110.2V96.7H99.39l-.66,5.94-.08.75a3.48,3.48,0,0,1-.1.57l0,.17h.08l.5-.24a9.24,9.24,0,0,1,1.28-.39,7.64,7.64,0,0,1,1.88-.24,9.82,9.82,0,0,1,7.13,2.65,8.72,8.72,0,0,1,2.74,6.53,9,9,0,0,1-2.87,6.82,10,10,0,0,1-7.17,2.73,11.87,11.87,0,0,1-3.12-.4,9.51,9.51,0,0,1-2.45-1,15.51,15.51,0,0,1-1.69-1.17,7.23,7.23,0,0,1-1.06-1Z"/><path class="cls-6" d="M455.3,650.61l-2.21,2.88-.26-.32a8,8,0,0,0-.76-.73,8.65,8.65,0,0,0-1.26-.92,8,8,0,0,0-1.73-.73,7.29,7.29,0,0,0-2.18-.33,6.44,6.44,0,0,0-4.38,1.6,5.21,5.21,0,0,0-1.83,4.11,5.3,5.3,0,0,0,1.85,4.15,6.7,6.7,0,0,0,4.61,1.63,8.53,8.53,0,0,0,2.42-.35,7.55,7.55,0,0,0,1.76-.7l.59-.35,2.27.84-1.4,14H438.52v-3.44h10.81L450,666l.08-.75a3.45,3.45,0,0,1,.1-.57l0-.18h-.08l-.5.24a9.24,9.24,0,0,1-1.28.39,7.64,7.64,0,0,1-1.88.24,9.83,9.83,0,0,1-7.13-2.65,8.73,8.73,0,0,1-2.74-6.53,9,9,0,0,1,2.87-6.82,10,10,0,0,1,7.17-2.73,11.87,11.87,0,0,1,3.12.4,9.51,9.51,0,0,1,2.45,1,15.51,15.51,0,0,1,1.69,1.17,7.12,7.12,0,0,1,1.06,1Z"/></svg>