<svg id="Laag_1" data-name="Laag 1" xmlns="http://www.w3.org/2000/svg" xmlns:xlink="http://www.w3.org/1999/xlink" viewBox="0 0 550 770"><defs><style>.cls-1{fill:#d35400;}.cls-2{clip-path:url(#clip-path);}.cls-3,.cls-4{fill:none;stroke-miterlimit:10;}.cls-3{stroke:#d37c4c;}.cls-4{stroke:#d35400;stroke-width:2px;}.cls-5{fill:#fff;}</style><clipPath id="clip-path"><rect class="cls-1" x="51.2" y="52.31" width="447.6" height="665.38" rx="40" ry="40"/></clipPath></defs><title>CoostoPoker_13</title><rect class="cls-1" x="51.2" y="52.31" width="447.6" height="665.38" rx="40" ry="40"/><g class="cls-2"><circle class="cls-3" cx="275" cy="385" r="299.36"/><circle class="cls-3" cx="275" cy="385" r="239.49"/><circle class="cls-3" cx="275" cy="385" r="185.6"/><circle class="cls-3" cx="275" cy="385" r="121.18"/><circle class="cls-3" cx="275" cy="385" r="61.33"/></g><rect class="cls-4" x="24.58" y="25.26" width="500.84" height="719.49" rx="45" ry="45"/><path class="cls-5" d="M198.67,349.48l27.12-26.25h14.13v99.22h24.53V436.2H199.61V422.45h24.84v-73l.16-7h-.31a28.34,28.34,0,0,1-5.47,6.56L208.28,359.4Z"/><path class="cls-5" d="M275.16,422.6l8.67-12,1.29,1.33a36.22,36.22,0,0,0,3.59,3,45.47,45.47,0,0,0,5.78,3.74,38.57,38.57,0,0,0,7.54,3,32.39,32.39,0,0,0,9.14,1.33,24.06,24.06,0,0,0,16.37-5.81,18.72,18.72,0,0,0,6.68-14.78q0-9.9-7.58-15.33T308,381.58h-7.89l-3.67-8.5,24.69-28.93q1.64-1.87,3.4-3.7t2.7-2.69l.94-.94v-.31a74.4,74.4,0,0,1-9.61.47H280.23V323.23h67.45v10.08L316.9,368.64a44.39,44.39,0,0,1,9.18,1.91,40.75,40.75,0,0,1,8.87,4.13,35.23,35.23,0,0,1,7.7,6.36,28,28,0,0,1,5.34,9,32.71,32.71,0,0,1,2,11.66,36,36,0,0,1-2.75,13.91,36.6,36.6,0,0,1-7.58,11.6,35.16,35.16,0,0,1-12.14,8,41.27,41.27,0,0,1-15.74,3,49.47,49.47,0,0,1-9.26-.87,47.7,47.7,0,0,1-8.09-2.21,64.79,64.79,0,0,1-6.72-3,37.17,37.17,0,0,1-5.43-3.35q-2.23-1.7-3.91-3a21.36,21.36,0,0,1-2.46-2.21Z"/><path class="cls-5" d="M93.54,99.83l6.78-6.56h3.53v24.8H110v3.44H93.77v-3.44H100V99.83l0-1.76h-.08a7.12,7.12,0,0,1-1.37,1.64l-2.64,2.6Z"/><path class="cls-5" d="M112.66,118.11l2.17-3,.32.33a8.88,8.88,0,0,0,.9.74,11.26,11.26,0,0,0,1.45.94,9.54,9.54,0,0,0,1.88.74,8.09,8.09,0,0,0,2.29.33,6,6,0,0,0,4.09-1.45,4.68,4.68,0,0,0,1.67-3.69,4.44,4.44,0,0,0-1.89-3.83,7.82,7.82,0,0,0-4.67-1.36h-2l-.92-2.12,6.17-7.23q.41-.47.85-.93t.67-.67l.23-.23v-.08a18.61,18.61,0,0,1-2.4.12h-9.57V93.26h16.86v2.52l-7.7,8.83a11.06,11.06,0,0,1,2.29.48,10.21,10.21,0,0,1,2.22,1,8.82,8.82,0,0,1,1.92,1.59,7,7,0,0,1,1.33,2.25,8.14,8.14,0,0,1,.51,2.91,9,9,0,0,1-.69,3.48,9.15,9.15,0,0,1-1.89,2.9,8.79,8.79,0,0,1-3,2,10.32,10.32,0,0,1-3.93.74,12.39,12.39,0,0,1-2.31-.22,11.92,11.92,0,0,1-2-.55,16,16,0,0,1-1.68-.75,9.2,9.2,0,0,1-1.36-.84l-1-.76a5.11,5.11,0,0,1-.62-.55Z"/><path class="cls-5" d="M455.19,668.81l-6.78,6.56h-3.53v-24.8h-6.13v-3.44H455v3.44h-6.21v18.24l0,1.76h.08a7.07,7.07,0,0,1,1.37-1.64l2.64-2.6Z"/><path class="cls-5" d="M436.07,650.53l-2.17,3-.32-.33a9.14,9.14,0,0,0-.9-.74,11.4,11.4,0,0,0-1.45-.94,9.6,9.6,0,0,0-1.88-.74,8.07,8.07,0,0,0-2.29-.33A6,6,0,0,0,423,651.9a4.68,4.68,0,0,0-1.67,3.69,4.44,4.44,0,0,0,1.89,3.83,7.82,7.82,0,0,0,4.67,1.35h2l.92,2.13-6.17,7.23q-.41.47-.85.93t-.67.67l-.23.23V672a18.59,18.59,0,0,1,2.4-.12h9.57v3.44H417.94v-2.52l7.7-8.83a11.11,11.11,0,0,1-2.29-.48,10.23,10.23,0,0,1-2.22-1,8.83,8.83,0,0,1-1.92-1.59,7,7,0,0,1-1.33-2.25,8.17,8.17,0,0,1-.5-2.91,9,9,0,0,1,.69-3.48,9.15,9.15,0,0,1,1.9-2.9,8.79,8.79,0,0,1,3-2,10.32,10.32,0,0,1,3.93-.74,12.39,12.39,0,0,1,2.31.22,11.92,11.92,0,0,1,2,.55,15.89,15.89,0,0,1,1.68.75,9.17,9.17,0,0,1,1.36.84l1,.76a5.36,5.36,0,0,1,.62.55Z"/></svg>