<svg id="Laag_1" data-name="Laag 1" xmlns="http://www.w3.org/2000/svg" xmlns:xlink="http://www.w3.org/1999/xlink" viewBox="0 0 550 770"><defs><style>.cls-1{fill:#ccb6b0;}.cls-2{clip-path:url(#clip-path);}.cls-3,.cls-4{fill:none;stroke-miterlimit:10;}.cls-3{stroke:#dbcbc8;}.cls-4{stroke:#ccb6b0;stroke-width:2px;}.cls-5{fill:#7d7d82;}.cls-6{fill:#98989f;}.cls-7{fill:#878787;}.cls-8{fill:#909093;}.cls-9{fill:#fff;}.cls-10{fill:#7f7f84;}.cls-11{fill:#656568;}</style><clipPath id="clip-path"><rect class="cls-1" x="51.54" y="52.31" width="447.6" height="665.38" rx="40" ry="40"/></clipPath></defs><title>CoostoPoker_elephant</title><rect class="cls-1" x="51.54" y="52.31" width="447.6" height="665.38" rx="40" ry="40"/><g class="cls-2"><circle class="cls-3" cx="275.34" cy="385" r="299.36"/><circle class="cls-3" cx="275.34" cy="385" r="239.49"/><circle class="cls-3" cx="275.34" cy="385" r="185.6"/><circle class="cls-3" cx="275.34" cy="385" r="121.18"/><circle class="cls-3" cx="275.34" cy="385" r="61.33"/></g><rect class="cls-4" x="24.58" y="25.26" width="500.84" height="719.49" rx="45" ry="45"/><path class="cls-5" d="M208.14,349c3.67,39.78-12.43,69.24-35.64,69.24S104.94,388.76,96.71,349c-9.13-44.15,24.88-83.68,52.92-83.68S204.07,304.83,208.14,349Z"/><path class="cls-5" d="M341.6,349c-3.67,39.78,12.43,69.24,35.64,69.24S444.8,388.76,453,349c9.13-44.15-24.88-83.68-52.92-83.68S345.67,304.83,341.6,349Z"/><ellipse class="cls-6" cx="276.69" cy="371.68" rx="117.65" ry="97.31"/><path class="cls-7" d="M223.93,416.83l1.19.47c.77.31,1.92.69,3.36,1.18a119.33,119.33,0,0,0,12,3.22c2.5.51,5.18,1,8,1.46s5.87.8,9,1.06c1.56.14,3.15.24,4.75.34.8.06,1.61.08,2.43.1l2.45.1c3.29,0,6.62.06,10-.11,1.67-.06,3.34-.1,5-.26.83-.06,1.66-.13,2.49-.17s1.65-.15,2.48-.22c1.65-.15,3.28-.3,4.9-.51s3.21-.37,4.78-.6c3.15-.4,6.18-.92,9.09-1.35l4.22-.75c1.38-.2,2.69-.48,4-.72l3.67-.67,3.31-.66c2.09-.4,3.93-.73,5.43-1s2.72-.49,3.54-.65l1.27-.2-1.05.73c-.7.45-1.71,1.16-3,2s-3,1.79-4.86,2.82c-1,.52-2,1.05-3.06,1.61l-3.48,1.61c-2.42,1.15-5.15,2.14-8,3.23s-6,2-9.29,2.77c-1.62.46-3.31.78-5,1.13-.85.17-1.71.36-2.57.51l-2.63.39c-1.76.28-3.54.5-5.34.64s-3.6.28-5.42.36-3.63,0-5.44.05-3.61-.17-5.4-.25-3.55-.31-5.29-.58l-2.59-.38c-.86-.13-1.7-.33-2.53-.49a76.69,76.69,0,0,1-9.5-2.52,73.23,73.23,0,0,1-8.15-3.29,66,66,0,0,1-6.47-3.59,52.17,52.17,0,0,1-4.62-3.33A28.6,28.6,0,0,1,223.93,416.83Z"/><circle class="cls-8" cx="321.01" cy="356.09" r="22.1"/><circle class="cls-9" cx="321.02" cy="356.09" r="10.64"/><circle cx="321.02" cy="356.09" r="7.52"/><circle class="cls-9" cx="325.98" cy="352.47" r="3.9"/><circle class="cls-8" cx="230.54" cy="356.09" r="22.1"/><circle class="cls-9" cx="230.54" cy="356.09" r="10.64"/><circle cx="230.54" cy="356.09" r="7.52"/><circle class="cls-9" cx="235.51" cy="352.47" r="3.9"/><path class="cls-10" d="M359.93,542.07a16.68,16.68,0,0,1-25,14.44c-33-19.06-86.81-63.64-86.81-151.46v-9.18a16.68,16.68,0,0,1,16.68-16.68h27.5A16.68,16.68,0,0,1,309,395.87v9.18s4,105.33,40.91,121.72a16.78,16.78,0,0,1,10.06,15.3Z"/><path class="cls-11" d="M257.16,403.82h.57c.35,0,.89,0,1.53,0l2.26,0,2.81,0,3.18.09c1.1.05,2.26,0,3.42.1s2.35.1,3.56.07c.6,0,1.2,0,1.8.06h1.8c1.21.07,2.4,0,3.59,0s2.35-.09,3.51-.06h.87l.84,0c.56,0,1.11-.06,1.66-.06,1.11,0,2.15-.07,3.15-.12.5,0,1,0,1.46,0a12.58,12.58,0,0,0,1.35,0c.84-.05,1.61-.08,2.26-.08s1.19,0,1.55,0l.58,0s-.1.17-.3.47-.5.74-.93,1.26-1,1.14-1.6,1.82a19.07,19.07,0,0,1-2.38,2c-.46.34-.95.67-1.46,1a15.41,15.41,0,0,1-1.66.91c-.58.3-1.19.56-1.82.85a10.81,10.81,0,0,1-2,.73c-.68.21-1.38.4-2.09.59-.36.09-.72.19-1.08.26l-1.11.16a25.86,25.86,0,0,1-4.52.32c-.76,0-1.52,0-2.27-.08s-1.49-.19-2.23-.31a27.78,27.78,0,0,1-4.23-1c-.67-.22-1.31-.48-1.94-.75a17.49,17.49,0,0,1-1.8-.82c-.57-.31-1.12-.59-1.64-.91s-1-.65-1.47-1a22.46,22.46,0,0,1-2.39-1.94,19.11,19.11,0,0,1-1.65-1.76,14.26,14.26,0,0,1-.93-1.28A4.09,4.09,0,0,1,257.16,403.82Z"/><path class="cls-11" d="M262,433.46l.46-.17c.29-.09.72-.27,1.25-.42,1.06-.34,2.5-.72,4.18-1.09.83-.16,1.73-.35,2.65-.48s1.89-.26,2.88-.39c2-.2,4-.31,6.11-.32,1,0,2.07,0,3.09.07s2,.09,3,.21,2,.21,2.88.36,1.82.3,2.66.47,1.63.39,2.33.56,1.33.36,1.86.53,1,.35,1.25.46.46.19.46.19-.11.14-.32.37-.52.57-.94.94-.93.82-1.55,1.29a22.89,22.89,0,0,1-4.78,2.64,25.83,25.83,0,0,1-3.07,1,27.4,27.4,0,0,1-3.37.65,28.81,28.81,0,0,1-3.52.22,27.37,27.37,0,0,1-6.88-.85,27,27,0,0,1-3.07-1,24.69,24.69,0,0,1-2.66-1.27,19.85,19.85,0,0,1-2.14-1.37,16.62,16.62,0,0,1-1.55-1.29A11.06,11.06,0,0,1,262,433.46Z"/><path class="cls-11" d="M274.87,462.64l.25-.3c.16-.17.39-.47.69-.74s.65-.66,1.06-1,.86-.72,1.35-1.07a18.2,18.2,0,0,1,7.15-3.12c.66-.11,1.29-.22,1.94-.28a17.72,17.72,0,0,1,1.91-.07,17.07,17.07,0,0,1,1.84.12c.61.07,1.16.14,1.74.25s1.07.19,1.58.31,1,.23,1.36.3.75.17,1,.22l.38.1a3.35,3.35,0,0,1-.05.38,6.86,6.86,0,0,1-.26,1,7.05,7.05,0,0,1-.62,1.43,10.53,10.53,0,0,1-1.08,1.59,12.55,12.55,0,0,1-3.39,2.84,13.43,13.43,0,0,1-2.13,1,14.8,14.8,0,0,1-6.84.81,13.88,13.88,0,0,1-5.6-2,13.06,13.06,0,0,1-1.22-.86,8.81,8.81,0,0,1-.78-.67C275,462.75,274.87,462.64,274.87,462.64Z"/><path class="cls-5" d="M105.42,107.66c1,10.72-3.35,18.66-9.61,18.66s-18.21-7.94-20.43-18.66C72.93,95.76,82.09,85.1,89.65,85.1S104.33,95.76,105.42,107.66Z"/><path class="cls-5" d="M141.4,107.66c-1,10.72,3.35,18.66,9.61,18.66s18.21-7.94,20.43-18.66c2.46-11.9-6.71-22.56-14.27-22.56S142.49,95.76,141.4,107.66Z"/><ellipse class="cls-6" cx="123.9" cy="113.78" rx="31.71" ry="26.23"/><path class="cls-7" d="M109.68,125.95l.32.13c.21.08.52.19.91.32a32.17,32.17,0,0,0,3.24.87c.67.14,1.4.28,2.17.39s1.58.22,2.42.28L120,128l.65,0,.66,0c.89,0,1.78,0,2.68,0,.45,0,.9,0,1.35-.07l.67,0,.67-.06,1.32-.14,1.29-.16c.85-.11,1.67-.25,2.45-.36l1.14-.2c.37-.05.72-.13,1.07-.2l1-.18.89-.18,1.46-.28,1-.17.34-.05-.28.2c-.19.12-.46.31-.82.54s-.8.48-1.31.76l-.83.43-.94.44c-.65.31-1.39.58-2.16.87s-1.62.53-2.5.75c-.44.12-.89.21-1.35.3l-.69.14-.71.1c-.47.07-1,.14-1.44.17s-1,.07-1.46.1-1,0-1.47,0-1,0-1.45-.07-1-.08-1.43-.16l-.7-.1-.68-.13a20.67,20.67,0,0,1-2.56-.68,19.74,19.74,0,0,1-2.2-.89,17.78,17.78,0,0,1-1.75-1,14.06,14.06,0,0,1-1.24-.9A7.71,7.71,0,0,1,109.68,125.95Z"/><circle class="cls-8" cx="135.85" cy="109.57" r="5.96"/><circle class="cls-9" cx="135.85" cy="109.57" r="2.87"/><circle cx="135.85" cy="109.57" r="2.03"/><circle class="cls-9" cx="137.19" cy="108.6" r="1.05"/><circle class="cls-8" cx="111.46" cy="109.57" r="5.96"/><circle class="cls-9" cx="111.46" cy="109.57" r="2.87"/><circle cx="111.46" cy="109.57" r="2.03"/><circle class="cls-9" cx="112.8" cy="108.6" r="1.05"/><path class="cls-10" d="M146.34,159.71a4.5,4.5,0,0,1-6.75,3.89c-8.89-5.14-23.4-17.15-23.4-40.83V120.3a4.5,4.5,0,0,1,4.5-4.5h7.41a4.5,4.5,0,0,1,4.5,4.5v2.47s1.08,28.39,11,32.81a4.52,4.52,0,0,1,2.71,4.12Z"/><path class="cls-11" d="M118.64,122.44h1.93l.86,0,.92,0c.32,0,.63,0,1,0l.49,0h.49c.32,0,.65,0,1,0s.63,0,.95,0h.46l.45,0c.3,0,.58,0,.85,0h.76l.61,0h.57l-.08.13c-.06.08-.14.2-.25.34s-.26.31-.43.49a5.14,5.14,0,0,1-.64.53l-.39.28a4.16,4.16,0,0,1-.45.24l-.49.23a2.92,2.92,0,0,1-.53.2l-.56.16-.29.07-.3,0a7,7,0,0,1-1.22.09l-.61,0-.6-.08a7.49,7.49,0,0,1-1.14-.28c-.18-.06-.35-.13-.52-.2a4.72,4.72,0,0,1-.49-.22l-.44-.24-.4-.26a6.06,6.06,0,0,1-.65-.52,5.15,5.15,0,0,1-.44-.47,3.85,3.85,0,0,1-.25-.35A1.11,1.11,0,0,1,118.64,122.44Z"/><path class="cls-11" d="M119.94,130.43l.12,0,.34-.11c.29-.09.68-.19,1.13-.29.22,0,.47-.1.71-.13s.51-.07.78-.1c.53-.05,1.09-.08,1.65-.09.28,0,.56,0,.83,0s.55,0,.81.06.53.06.78.1l.72.13.63.15.5.14.34.12.12.05-.09.1c-.06.06-.14.15-.25.25s-.25.22-.42.35a6.17,6.17,0,0,1-1.29.71,7,7,0,0,1-.83.28,7.38,7.38,0,0,1-.91.18,7.76,7.76,0,0,1-.95.06,7.38,7.38,0,0,1-1.86-.23,7.27,7.27,0,0,1-.83-.27,6.66,6.66,0,0,1-.72-.34,5.35,5.35,0,0,1-.58-.37,4.48,4.48,0,0,1-.42-.35A3,3,0,0,1,119.94,130.43Z"/><path class="cls-11" d="M123.41,138.29l.07-.08s.11-.13.19-.2.18-.18.28-.27l.37-.29a4.91,4.91,0,0,1,1.93-.84c.18,0,.35-.06.52-.08a4.77,4.77,0,0,1,.51,0,4.6,4.6,0,0,1,.5,0l.47.07.43.08.37.08.26.06.1,0a.9.9,0,0,1,0,.1,1.85,1.85,0,0,1-.07.27,1.9,1.9,0,0,1-.17.39,2.84,2.84,0,0,1-.29.43,3.38,3.38,0,0,1-.91.76,3.62,3.62,0,0,1-.57.27,4,4,0,0,1-1.84.22,3.74,3.74,0,0,1-1.51-.53,3.52,3.52,0,0,1-.33-.23,2.38,2.38,0,0,1-.21-.18Z"/><path class="cls-5" d="M443.79,662c-1-10.72,3.35-18.66,9.61-18.66s18.21,7.94,20.43,18.66c2.46,11.9-6.71,22.56-14.27,22.56S444.89,673.9,443.79,662Z"/><path class="cls-5" d="M407.82,662c1-10.72-3.35-18.66-9.61-18.66S380,651.28,377.78,662c-2.46,11.9,6.71,22.56,14.27,22.56S406.72,673.9,407.82,662Z"/><ellipse class="cls-6" cx="425.32" cy="655.88" rx="31.71" ry="26.23"/><path class="cls-7" d="M439.54,643.71l-.32-.13c-.21-.08-.52-.19-.91-.32a32.17,32.17,0,0,0-3.24-.87c-.67-.14-1.4-.28-2.17-.39s-1.58-.22-2.42-.28l-1.28-.09-.65,0-.66,0c-.89,0-1.78,0-2.68,0-.45,0-.9,0-1.35.07l-.67,0-.67.06-1.32.14-1.29.16c-.85.11-1.67.25-2.45.36l-1.14.2c-.37.05-.72.13-1.07.2l-1,.18-.89.18-1.46.28-1,.17-.34.05.28-.2c.19-.12.46-.31.82-.54s.8-.48,1.31-.76l.83-.43.94-.44c.65-.31,1.39-.58,2.16-.87s1.62-.53,2.5-.75c.44-.12.89-.21,1.35-.3l.69-.14.71-.1c.47-.07,1-.14,1.44-.17s1-.07,1.46-.1,1,0,1.47,0,1,0,1.45.07,1,.08,1.43.16l.7.1.68.13a20.67,20.67,0,0,1,2.56.68,19.74,19.74,0,0,1,2.2.89,17.78,17.78,0,0,1,1.75,1,14.06,14.06,0,0,1,1.24.9A7.71,7.71,0,0,1,439.54,643.71Z"/><circle class="cls-8" cx="413.37" cy="660.08" r="5.96"/><circle class="cls-9" cx="413.37" cy="660.08" r="2.87"/><circle cx="413.37" cy="660.08" r="2.03"/><circle class="cls-9" cx="412.03" cy="661.06" r="1.05"/><circle class="cls-8" cx="437.76" cy="660.08" r="5.96"/><circle class="cls-9" cx="437.76" cy="660.08" r="2.87"/><circle cx="437.76" cy="660.08" r="2.03"/><circle class="cls-9" cx="436.42" cy="661.06" r="1.05"/><path class="cls-10" d="M402.88,609.95a4.5,4.5,0,0,1,6.75-3.89c8.89,5.14,23.4,17.15,23.4,40.83v2.47a4.5,4.5,0,0,1-4.5,4.5h-7.41a4.5,4.5,0,0,1-4.5-4.5v-2.47s-1.08-28.39-11-32.81a4.52,4.52,0,0,1-2.71-4.12Z"/><path class="cls-11" d="M430.58,647.21h-1.93l-.86,0-.92,0c-.32,0-.63,0-1,0l-.49,0h-.49c-.32,0-.65,0-1,0s-.63,0-.95,0h-.46l-.45,0c-.3,0-.58,0-.85,0h-.76l-.61,0h-.57l.08-.13c.06-.08.14-.2.25-.34s.26-.31.43-.49a5.14,5.14,0,0,1,.64-.53l.39-.28a4.16,4.16,0,0,1,.45-.24l.49-.23a2.92,2.92,0,0,1,.53-.2l.56-.16.29-.07.3,0a7,7,0,0,1,1.22-.09l.61,0,.6.08a7.49,7.49,0,0,1,1.14.28c.18.06.35.13.52.2a4.72,4.72,0,0,1,.49.22l.44.24.4.26a6.06,6.06,0,0,1,.65.52,5.15,5.15,0,0,1,.44.47,3.85,3.85,0,0,1,.25.35A1.11,1.11,0,0,1,430.58,647.21Z"/><path class="cls-11" d="M429.28,639.22l-.12,0-.34.11c-.29.09-.68.19-1.13.29-.22,0-.47.1-.71.13s-.51.07-.78.1c-.53.05-1.09.08-1.65.09-.28,0-.56,0-.83,0s-.55,0-.81-.06-.53-.06-.78-.1l-.72-.13-.63-.15-.5-.14-.34-.12-.12-.05.09-.1c.06-.06.14-.15.25-.25s.25-.22.42-.35a6.17,6.17,0,0,1,1.29-.71,7,7,0,0,1,.83-.28,7.38,7.38,0,0,1,.91-.18,7.76,7.76,0,0,1,.95-.06,7.38,7.38,0,0,1,1.86.23,7.27,7.27,0,0,1,.83.27,6.66,6.66,0,0,1,.72.34,5.35,5.35,0,0,1,.58.37,4.48,4.48,0,0,1,.42.35A3,3,0,0,1,429.28,639.22Z"/><path class="cls-11" d="M425.81,631.36l-.07.08s-.11.13-.19.2-.18.18-.28.27l-.37.29A4.91,4.91,0,0,1,423,633c-.18,0-.35.06-.52.08a4.77,4.77,0,0,1-.51,0,4.6,4.6,0,0,1-.5,0L421,633l-.43-.08-.37-.08-.26-.06-.1,0a.9.9,0,0,1,0-.1,1.85,1.85,0,0,1,.07-.27,1.9,1.9,0,0,1,.17-.39,2.84,2.84,0,0,1,.29-.43,3.38,3.38,0,0,1,.91-.76,3.62,3.62,0,0,1,.57-.27,4,4,0,0,1,1.84-.22,3.74,3.74,0,0,1,1.51.53,3.52,3.52,0,0,1,.33.23,2.38,2.38,0,0,1,.21.18Z"/></svg>