<svg id="Laag_1" data-name="Laag 1" xmlns="http://www.w3.org/2000/svg" xmlns:xlink="http://www.w3.org/1999/xlink" viewBox="0 0 550 770"><defs><style>.cls-1{fill:#c14c73;}.cls-2{clip-path:url(#clip-path);}.cls-3{opacity:0.25;}.cls-4,.cls-5{fill:none;stroke-miterlimit:10;}.cls-4{stroke:#ffeef3;}.cls-5{stroke:#c14c73;stroke-width:2px;}.cls-6{fill:#fff;}</style><clipPath id="clip-path"><rect class="cls-1" x="51.2" y="52.31" width="447.6" height="665.38" rx="40" ry="40"/></clipPath></defs><title>CoostoPoker_1</title><rect class="cls-1" x="51.2" y="52.31" width="447.6" height="665.38" rx="40" ry="40"/><g class="cls-2"><g class="cls-3"><circle class="cls-4" cx="275" cy="385" r="299.36"/><circle class="cls-4" cx="275" cy="385" r="239.49"/><circle class="cls-4" cx="275" cy="385" r="185.6"/><circle class="cls-4" cx="275" cy="385" r="121.18"/><circle class="cls-4" cx="275" cy="385" r="61.33"/></g></g><rect class="cls-5" x="24.58" y="25.26" width="500.84" height="719.49" rx="45" ry="45"/><path class="cls-6" d="M244,349.48l27.12-26.25h14.13v99.22h24.53V436.2H245V422.45h24.84v-73l.16-7h-.31a28.34,28.34,0,0,1-5.47,6.56L253.63,359.4Z"/><path class="cls-6" d="M93.54,99.83l6.78-6.56h3.53v24.8H110v3.44H93.77v-3.44H100V99.83l0-1.76h-.08a7.07,7.07,0,0,1-1.37,1.64l-2.64,2.6Z"/><path class="cls-6" d="M455.19,668.83l-6.78,6.56h-3.53v-24.8h-6.13v-3.44H455v3.44h-6.21v18.24l0,1.76h.08a7.07,7.07,0,0,1,1.37-1.64l2.64-2.6Z"/></svg>