<svg id="Laag_1" data-name="Laag 1" xmlns="http://www.w3.org/2000/svg" xmlns:xlink="http://www.w3.org/1999/xlink" viewBox="0 0 550 770"><defs><style>.cls-1{fill:#603813;}.cls-2{clip-path:url(#clip-path);}.cls-3,.cls-4{fill:none;stroke-miterlimit:10;}.cls-3{stroke:#845029;}.cls-4{stroke:#603813;stroke-width:2px;}.cls-5{fill:#f2f2f2;}.cls-6,.cls-7{fill:#ccc;}.cls-6{opacity:0.5;}.cls-8{fill:#fff;}</style><clipPath id="clip-path"><rect class="cls-1" x="51.2" y="52.31" width="447.6" height="665.38" rx="40" ry="40"/></clipPath></defs><title>CoostoPoker_coffee</title><rect class="cls-1" x="51.2" y="52.31" width="447.6" height="665.38" rx="40" ry="40"/><g class="cls-2"><circle class="cls-3" cx="275" cy="385" r="299.36"/><circle class="cls-3" cx="275" cy="385" r="239.49"/><circle class="cls-3" cx="275" cy="385" r="185.6"/><circle class="cls-3" cx="275" cy="385" r="121.18"/><circle class="cls-3" cx="275" cy="385" r="61.33"/></g><rect class="cls-4" x="24.58" y="25.26" width="500.84" height="719.49" rx="45" ry="45"/><g id="coffee_cup" data-name="coffee cup"><g id="_Groep_" data-name="&lt;Groep&gt;"><path id="_Pad_" data-name="&lt;Pad&gt;" class="cls-5" d="M131.21,436.12c0,18.06,64.41,42.49,143.87,42.49s143.87-24.43,143.87-42.49-64.41-32.7-143.87-32.7S131.21,418.06,131.21,436.12Z"/><path id="_Pad_2" data-name="&lt;Pad&gt;" class="cls-6" d="M179.78,445.12c0,9.57,42.68,23.73,95.33,23.73s95.33-14.16,95.33-23.73-42.68-17.33-95.33-17.33S179.78,435.55,179.78,445.12Z"/></g><g id="_Groep_2" data-name="&lt;Groep&gt;"><path class="cls-5" d="M150.54,326.76c16.67-7.84,23.37,1.94,30.37,1.5v11c0,.58-9.64-8.73-22.11-5.16C141.71,339,135.73,359.54,144.31,375s32.15,19.48,47.27,13.48c2.9-1.15,6.42-.44,7.89-2.39l9.47,21.8c-2.94,3.89-8.72-.81-18.68-3.45-22-5.85-43.64-6.2-54.1-25S131.45,335.74,150.54,326.76Z"/><g id="_Groep_3" data-name="&lt;Groep&gt;"><path id="_Pad_3" data-name="&lt;Pad&gt;" class="cls-5" d="M175.47,310c1-14,45.81-18.72,100.93-18.72S376.31,296,377.32,310h0s0,141.78-101,141.78C175.48,451.78,175.44,310,175.44,310Z"/><ellipse id="_Pad_4" data-name="&lt;Pad&gt;" class="cls-5" cx="276.19" cy="441.2" rx="39.41" ry="8.94"/></g><path id="_Pad_5" data-name="&lt;Pad&gt;" class="cls-7" d="M276.39,326.27c26.21,0,50.76-2.17,69.1-6.12,19.7-4.24,23.73-8.66,23.73-9.62s-4-5.38-23.73-9.62c-18.35-3.94-42.89-6.12-69.1-6.12s-50.76,2.17-69.1,6.12c-19.7,4.24-23.72,8.66-23.72,9.62s4,5.38,23.72,9.62C225.64,324.1,250.18,326.27,276.39,326.27Z"/><g id="_Groep_4" data-name="&lt;Groep&gt;"><path id="_Pad_6" data-name="&lt;Pad&gt;" class="cls-1" d="M276.39,326.27c-26.21,0-50.76-2.17-69.1-6.12A93.63,93.63,0,0,1,190,315a93.68,93.68,0,0,1,17.34-5.15c18.35-3.94,42.89-6.12,69.1-6.12s50.76,2.17,69.1,6.12A93.67,93.67,0,0,1,362.84,315a93.62,93.62,0,0,1-17.34,5.15C327.15,324.1,302.61,326.27,276.39,326.27Z"/></g><path id="_Pad_7" data-name="&lt;Pad&gt;" class="cls-8" d="M333.07,347.26A103.86,103.86,0,0,0,333,327.6c6.25-.83,12.08-1.83,17.4-3,2.4-.52,4.56-1,6.51-1.55.32,21.09-2.39,64.1-26.61,95.14-20.36,26.09-20.81,15.84-19.55,14C323.15,414.13,329.81,390.65,333.07,347.26Z"/></g></g><g id="coffee_cup-2" data-name="coffee cup"><g id="_Groep_5" data-name="&lt;Groep&gt;"><path id="_Pad_8" data-name="&lt;Pad&gt;" class="cls-5" d="M90,129.17c0,4.89,17.44,11.5,39,11.5s39-6.61,39-11.5-17.44-8.85-39-8.85S90,124.28,90,129.17Z"/><path id="_Pad_9" data-name="&lt;Pad&gt;" class="cls-6" d="M103.15,131.61c0,2.59,11.56,6.43,25.81,6.43s25.81-3.83,25.81-6.43-11.56-4.69-25.81-4.69S103.15,129,103.15,131.61Z"/></g><g id="_Groep_6" data-name="&lt;Groep&gt;"><path class="cls-5" d="M95.46,99.56c4.51-2.12,6.45.52,8.45.41v3c0,.16-2.83-2.36-6.21-1.4-4.62,1.32-6.35,6.9-4,11.08s8.65,5.27,12.74,3.65c.79-.31,1.71-.12,2.11-.65l2.55,5.9c-.8,1.05-2.37-.22-5.06-.93-6-1.58-11.71-1.68-14.54-6.78S90.29,102,95.46,99.56Z"/><g id="_Groep_7" data-name="&lt;Groep&gt;"><path id="_Pad_10" data-name="&lt;Pad&gt;" class="cls-5" d="M102,95c.27-4,12.4-5.07,27.33-5.07S156.37,91,156.64,95h0s0,38.39-27.36,38.39S102,95,102,95Z"/><ellipse id="_Pad_11" data-name="&lt;Pad&gt;" class="cls-5" cx="129.26" cy="130.55" rx="10.67" ry="2.42"/></g><path id="_Pad_12" data-name="&lt;Pad&gt;" class="cls-7" d="M129.31,99.43A93.59,93.59,0,0,0,148,97.77c5.33-1.15,6.42-2.35,6.42-2.6s-1.09-1.46-6.42-2.6a93.59,93.59,0,0,0-18.71-1.66,93.59,93.59,0,0,0-18.71,1.66c-5.33,1.15-6.42,2.35-6.42,2.6s1.09,1.46,6.42,2.6A93.59,93.59,0,0,0,129.31,99.43Z"/><g id="_Groep_8" data-name="&lt;Groep&gt;"><path id="_Pad_13" data-name="&lt;Pad&gt;" class="cls-1" d="M129.31,99.43a93.59,93.59,0,0,1-18.71-1.66,25.35,25.35,0,0,1-4.7-1.39A25.36,25.36,0,0,1,110.6,95a93.59,93.59,0,0,1,18.71-1.66A93.59,93.59,0,0,1,148,95a25.36,25.36,0,0,1,4.7,1.39,25.35,25.35,0,0,1-4.7,1.39A93.59,93.59,0,0,1,129.31,99.43Z"/></g><path id="_Pad_14" data-name="&lt;Pad&gt;" class="cls-8" d="M144.66,105.11a28.12,28.12,0,0,0,0-5.32c1.69-.23,3.27-.49,4.71-.8.65-.14,1.23-.28,1.76-.42.09,5.71-.65,17.36-7.2,25.76-5.51,7.06-5.64,4.29-5.29,3.79C142,123.22,143.77,116.86,144.66,105.11Z"/></g></g><g id="coffee_cup-3" data-name="coffee cup"><g id="_Groep_9" data-name="&lt;Groep&gt;"><path id="_Pad_15" data-name="&lt;Pad&gt;" class="cls-5" d="M460,640.37c0-4.89-17.44-11.5-39-11.5s-39,6.61-39,11.5,17.44,8.85,39,8.85S460,645.26,460,640.37Z"/><path id="_Pad_16" data-name="&lt;Pad&gt;" class="cls-6" d="M446.85,637.93c0-2.59-11.56-6.43-25.81-6.43s-25.81,3.83-25.81,6.43,11.56,4.69,25.81,4.69S446.85,640.52,446.85,637.93Z"/></g><g id="_Groep_10" data-name="&lt;Groep&gt;"><path class="cls-5" d="M454.45,670c-4.51,2.12-6.54-.52-8.54-.41v-3c0-.16,2.93,2.36,6.31,1.4,4.62-1.32,6.4-6.9,4.08-11.08s-8.62-5.27-12.72-3.65c-.79.31-1.7.12-2.1.65l-2.54-5.9c.8-1.05,2.37.22,5.07.93,6,1.58,11.66,1.68,14.49,6.78S459.61,667.54,454.45,670Z"/><g id="_Groep_11" data-name="&lt;Groep&gt;"><path id="_Pad_17" data-name="&lt;Pad&gt;" class="cls-5" d="M448,675c-.27,4-12.4,5.07-27.33,5.07S393.63,679,393.36,675h0s0-38.39,27.36-38.39S448,675,448,675Z"/><ellipse id="_Pad_18" data-name="&lt;Pad&gt;" class="cls-5" cx="420.74" cy="638.99" rx="10.67" ry="2.42"/></g><path id="_Pad_19" data-name="&lt;Pad&gt;" class="cls-7" d="M420.69,670.11A93.59,93.59,0,0,0,402,671.76c-5.33,1.15-6.42,2.35-6.42,2.6s1.09,1.46,6.42,2.6a106.53,106.53,0,0,0,37.42,0c5.33-1.15,6.42-2.35,6.42-2.6s-1.09-1.46-6.42-2.6A93.59,93.59,0,0,0,420.69,670.11Z"/><g id="_Groep_12" data-name="&lt;Groep&gt;"><path id="_Pad_20" data-name="&lt;Pad&gt;" class="cls-1" d="M420.69,670.11a93.59,93.59,0,0,1,18.71,1.66,25.35,25.35,0,0,1,4.7,1.39,25.36,25.36,0,0,1-4.7,1.39,106.52,106.52,0,0,1-37.42,0,25.36,25.36,0,0,1-4.7-1.39,25.35,25.35,0,0,1,4.7-1.39A93.59,93.59,0,0,1,420.69,670.11Z"/></g><path id="_Pad_21" data-name="&lt;Pad&gt;" class="cls-8" d="M405.34,664.43a28.12,28.12,0,0,0,0,5.32c-1.69.23-3.27.49-4.71.8-.65.14-1.23.28-1.76.42-.09-5.71.65-17.36,7.2-25.76,5.51-7.06,5.64-4.29,5.29-3.79C408,646.32,406.23,652.68,405.34,664.43Z"/></g></g></svg>